<?xml version="1.0" standalone="no"?>
<!DOCTYPE svg PUBLIC "-//W3C//DTD SVG 1.1//EN" "http://www.w3.org/Graphics/SVG/1.1/DTD/svg11.dtd" >
<svg xmlns="http://www.w3.org/2000/svg" xmlns:xlink="http://www.w3.org/1999/xlink" version="1.1">
<metadata></metadata>
<defs>
<font id="miller_displayroman" horiz-adv-x="1413" >
<font-face units-per-em="2048" ascent="1638" descent="-410" />
<missing-glyph horiz-adv-x="483" />
<glyph horiz-adv-x="0" />
<glyph unicode="&#xd;" horiz-adv-x="681" />
<glyph unicode=" "  horiz-adv-x="483" />
<glyph unicode="&#x09;" horiz-adv-x="483" />
<glyph unicode="&#xa0;" horiz-adv-x="483" />
<glyph unicode="!" horiz-adv-x="747" d="M242 110.5q0 57.5 40 97.5t97 40t97 -40t40 -97.5t-40 -96.5t-97 -39t-97 39t-40 96.5zM252 1288q0 57 36 98t91 41t91 -41t36 -98q0 -35 -17.5 -161t-43 -326.5t-42.5 -364.5h-53q-12 166 -37.5 362.5t-43 325.5t-17.5 164z" />
<glyph unicode="&#x22;" horiz-adv-x="802" d="M88 1397q0 49 29.5 80.5t83 31.5t83 -31.5t29.5 -80.5q0 -23 -10 -65t-32.5 -142t-45.5 -223h-53q-18 125 -39.5 223t-33 141t-11.5 66zM489 1397q0 49 30 80.5t83 31.5t83 -31.5t30 -80.5q0 -23 -10.5 -65t-33 -142t-44.5 -223h-54q-18 125 -39.5 223t-33 141t-11.5 66z " />
<glyph unicode="#" horiz-adv-x="1187" d="M199 262v187l227 55v207l-227 -56v187l227 55v387h49v-373l240 60v313h49v-299l229 55v-186l-229 -55v-207l229 55v-186l-229 -55v-420h-49v405l-240 -59v-346h-49v331zM475 518l240 60v206l-240 -59v-207z" />
<glyph unicode="$" horiz-adv-x="1259" d="M166 274q0 160 127 160q47 0 71.5 -29.5t24.5 -76.5q0 -39 -10 -56.5t-28.5 -33t-28.5 -33.5q0 -137 198 -164v510q-147 23 -238.5 114t-91.5 222q0 135 84 239.5t246 133.5v200h45v-194q53 4 84 4q23 0 68 -4v194h45v-198q125 -20 208 -81t83 -159q0 -61 -26 -102 t-77 -41q-98 0 -98 92q0 43 33 82t41 65q-20 72 -164 94v-471q338 -69 338 -356q0 -139 -86 -246.5t-252 -140.5v-289h-45v283q-45 -6 -101 -6q-35 0 -51 2v-279h-45v283q-147 23 -250.5 96.5t-103.5 185.5zM336 1001q0 -90 40 -147t144 -84v438q-184 -43 -184 -207zM565 37 q16 -2 51 -2q52 0 101 6v491q-18 4 -152 15v-510zM565 764q43 -8 152 -16v471q-23 2 -68 2q-43 0 -84 -7v-450zM762 49q199 48 199 236q0 84 -50.5 147.5t-148.5 93.5v-477z" />
<glyph unicode="%" horiz-adv-x="1798" d="M133 938q0 137 100.5 234.5t221.5 97.5q135 0 232 -86t97 -244q0 -131 -101 -226.5t-228 -95.5q-133 0 -227.5 86.5t-94.5 233.5zM293 946q0 -129 43 -203.5t125 -74.5q70 0 116 71.5t46 196.5q0 135 -43 210t-123 75q-78 0 -121 -75t-43 -200zM428 -170l875 1583l63 -31 l-879 -1583zM1014 291q0 137 100 234.5t221 97.5q135 0 232.5 -85t97.5 -245q0 -131 -101.5 -226.5t-228.5 -95.5q-133 0 -227 86t-94 234zM1174 299q0 -129 43 -204t124 -75q68 0 115 73t47 196q0 133 -43 208.5t-123 75.5q-78 0 -120.5 -76.5t-42.5 -197.5z" />
<glyph unicode="&#x26;" horiz-adv-x="1521" d="M74 305q0 139 79.5 238.5t264.5 216.5q-82 127 -115 202.5t-33 149.5q0 137 104.5 226t248.5 89q127 0 192.5 -79.5t65.5 -194.5q0 -188 -252 -340q133 -195 338 -451q166 236 166 373q0 66 -185 105v43h588v-43q-106 -10 -169.5 -31t-109.5 -70q-23 -27 -103.5 -180 t-152.5 -240q43 -55 110 -119.5t103 -86.5q98 -59 267 -68v-45h-480l-143 176q-205 -209 -393 -209q-160 0 -275.5 86t-115.5 252zM285 391q0 -129 71.5 -213t196.5 -84q166 0 268 125q-37 49 -121 158.5t-148.5 195.5t-102.5 146q-164 -102 -164 -328zM467 1171 q0 -131 133 -315q186 113 186 303q0 96 -45 150.5t-114 54.5q-88 0 -124 -62.5t-36 -130.5z" />
<glyph unicode="'" horiz-adv-x="401" d="M88 1397q0 49 29.5 80.5t83 31.5t83 -31.5t29.5 -80.5q0 -23 -10 -65t-32.5 -142t-45.5 -223h-53q-18 125 -39.5 223t-33 141t-11.5 66z" />
<glyph unicode="(" horiz-adv-x="747" d="M94 604q0 170 41 315.5t117 258t154.5 192.5t185.5 162l88 -55q-98 -76 -171 -151t-143.5 -180.5t-107.5 -242.5t-37 -299q0 -542 459 -876l-86 -56q-104 80 -181 156t-156 189.5t-121 262t-42 324.5z" />
<glyph unicode=")" horiz-adv-x="747" d="M68 -272q459 334 458 876q0 162 -36.5 299t-107.5 242.5t-143.5 180.5t-170.5 151l88 55q106 -82 185 -162t154.5 -192.5t116.5 -258t41 -315.5q0 -176 -42 -324.5t-120.5 -262t-155.5 -189.5t-181 -156z" />
<glyph unicode="*" horiz-adv-x="804" d="M123 997q0 18 7 27.5t28.5 17t48 14.5t76 23.5t100.5 38.5q-72 31 -145.5 51.5t-94 31.5t-20.5 40q0 23 16.5 42.5t36.5 19.5q16 0 41 -21.5t72 -62.5t98 -74q-8 59 -25.5 134t-17.5 93q0 55 55 55q57 0 58 -55q0 -12 -19.5 -87t-25.5 -140q51 37 98 79t70.5 60.5 t40.5 18.5q20 0 36.5 -18.5t16.5 -43.5q0 -27 -19.5 -38t-92.5 -31.5t-144 -53.5q47 -20 94 -36.5t73.5 -22.5t48 -15.5t31 -20t9.5 -26.5q0 -29 -17.5 -46t-40.5 -17q-12 0 -34.5 20.5t-69.5 61.5t-98 76q6 -68 24.5 -143t18.5 -85q0 -25 -15.5 -40t-42.5 -15q-55 0 -55 55 q0 16 18.5 87t26.5 143q-53 -35 -101 -77t-71.5 -62.5t-38.5 -20.5q-20 0 -37.5 19.5t-17.5 43.5z" />
<glyph unicode="+" horiz-adv-x="1187" d="M100 485v95h445v446h98v-446h444v-95h-444v-446h-98v446h-445z" />
<glyph unicode="," horiz-adv-x="512" d="M94 -295q190 113 207 299h-55q-74 0 -108 37t-34 92q0 47 35 84t92 37q172 0 172 -217q0 -86 -55 -170t-112.5 -129t-118.5 -80z" />
<glyph unicode="-" horiz-adv-x="778" d="M82 434v156h614v-156h-614z" />
<glyph unicode="." horiz-adv-x="512" d="M121 116.5q0 57.5 40 97.5t97 40t97 -40t40 -97.5t-40 -96t-97 -38.5t-97 38.5t-40 96z" />
<glyph unicode="/" horiz-adv-x="860" d="M49 -408l639 1948l96 -27l-641 -1947z" />
<glyph unicode="0" horiz-adv-x="1257" d="M102 592q0 303 159 490.5t378 187.5q242 0 379 -178.5t137 -442.5q0 -303 -157.5 -490.5t-379.5 -187.5q-242 0 -379 179.5t-137 441.5zM324 618q0 -268 76.5 -431.5t224.5 -163.5q131 0 220 165t89 435q0 262 -77 429t-224 167q-133 0 -221 -165t-88 -436z" />
<glyph unicode="1" horiz-adv-x="874" d="M61 1194l19 35q109 -47 215 -47q139 0 287 86h26q-29 -172 -28 -307v-789q0 -72 59 -98q49 -23 154 -29v-45h-635v45q123 6 161 21q29 10 46.5 36.5t17.5 59.5v919q-37 -10 -92 -10q-82 0 -230 123z" />
<glyph unicode="2" horiz-adv-x="1181" d="M109 0v51q295 223 501 441q131 137 182.5 252.5t51.5 252.5q0 111 -63.5 165.5t-145.5 54.5q-154 0 -248 -122t-94 -257q0 -66 22.5 -99.5t90.5 -33.5q49 0 89 21.5t52 35.5t43 55l24 -22q-111 -178 -290 -179q-78 0 -135.5 51.5t-57.5 149.5q0 156 156.5 304.5 t386.5 148.5q168 0 268 -85t100 -235q0 -207 -150.5 -366.5t-514.5 -366.5l-60 -51h510q119 0 213 196l39 -12l-121 -350h-849z" />
<glyph unicode="3" horiz-adv-x="1157" d="M59 227q0 76 46.5 122t109.5 46q100 0 100 -100q0 -45 -47 -77t-47 -66q0 -63 55.5 -107.5t165.5 -44.5q139 0 258 122t119 290q0 213 -164 213q-16 0 -31.5 -3.5t-33 -12.5t-28.5 -15t-29.5 -21.5t-26.5 -22.5t-28.5 -25.5t-26.5 -24.5l-41 49q23 16 89 62t87.5 62.5 t70 55.5t65.5 63.5t43 62.5t34 78t8 85q0 201 -191 201q-94 0 -187 -72t-93 -193q0 -109 100 -108q51 0 123 65l25 -24q-39 -45 -106.5 -89t-110.5 -44q-90 0 -139.5 44t-49.5 111q0 141 149.5 251t344.5 110q92 0 163.5 -29t108.5 -74t54.5 -88t17.5 -82q0 -90 -79 -173 t-247 -124l-37 -30q37 6 78 6q119 0 210 -66t91 -213q0 -207 -167 -328.5t-423 -121.5q-150 0 -266.5 74.5t-116.5 205.5z" />
<glyph unicode="4" horiz-adv-x="1165" d="M49 432v47l676 809h55v-772q166 0 199 27q55 45 59 155h39v-458h-35q-4 125 -61 170q-6 4 -14.5 8t-16.5 6t-22.5 4t-23.5 3t-27.5 1h-28.5h-32.5h-35.5v-264q0 -74 56 -98q45 -18 137 -25v-45h-580v45q113 6 139 16q57 18 58 95v276h-541zM152 516h438v526z" />
<glyph unicode="5" horiz-adv-x="1069" d="M72 215q0 72 41 101.5t88 29.5q86 0 86 -90q0 -31 -14.5 -63.5t-14.5 -67.5q8 -43 59.5 -75t131.5 -32q82 0 141 48.5t90 125t44 152.5t13 150q0 127 -73.5 183t-163.5 56q-78 0 -160 -44t-104 -120l-54 11l156 684h53q70 -80 266 -80q102 0 166 25.5t140 82.5l26 -22 q-43 -84 -120.5 -144.5t-164 -85t-144.5 -34t-99 -9.5q-96 0 -121 4l-76 -299q47 37 124 60.5t149 23.5q168 0 289.5 -107.5t121.5 -289.5q0 -180 -150.5 -299t-346.5 -119q-172 0 -275.5 71t-103.5 173z" />
<glyph unicode="6" horiz-adv-x="1157" d="M119 555q0 358 216 618.5t482 260.5q139 0 202.5 -66.5t63.5 -138.5q0 -115 -104 -115q-45 0 -65.5 22.5t-35 77t-26.5 78.5q-23 47 -45.5 60.5t-77.5 13.5q-135 0 -246.5 -185.5t-150.5 -478.5l8 -4q131 170 338 170q143 0 254.5 -119.5t111.5 -304.5q0 -61 -14 -123.5 t-50 -127t-89 -112.5t-139 -79t-195 -31q-186 0 -312 157t-126 427zM319 403q0 -176 74 -280.5t170 -104.5q80 0 135.5 42t81 112t35.5 136t10 138q0 346 -254 347q-100 0 -176 -97.5t-76 -292.5z" />
<glyph unicode="7" horiz-adv-x="1036" d="M82 807l123 526h37l16 -114h803v-19q-125 -180 -195.5 -310t-144.5 -321q-70 -182 -105.5 -317t-46.5 -322q-12 -176 -135 -176q-53 0 -78.5 33t-25.5 111q0 111 248 587q133 258 317 551h-551q-90 0 -146.5 -76.5t-74.5 -162.5z" />
<glyph unicode="8" horiz-adv-x="1142" d="M123 279q0 115 85 207t179 124v8q-119 57 -170 121t-51 179q0 154 130 259t290 105q178 0 280.5 -82t102.5 -219q0 -68 -61.5 -149.5t-162.5 -124.5v-9q119 -47 197 -121.5t78 -209.5q0 -176 -149.5 -287t-340.5 -111q-178 0 -292.5 89t-114.5 221zM272 276 q0 -109 71 -181t206 -72q119 0 206 70.5t87 189.5q0 125 -116 201.5t-282 109.5q-76 -41 -124 -128t-48 -190zM336 1010q0 -227 352 -285q150 60 150 283q0 100 -68 161.5t-182 61.5q-111 0 -181.5 -64.5t-70.5 -156.5z" />
<glyph unicode="9" horiz-adv-x="1157" d="M49 0q0 119 111 119q45 0 65.5 -29t32.5 -83t18 -70q37 -82 132 -82q168 0 282.5 203.5t140.5 490.5l-14 2q-131 -178 -332 -178q-152 0 -260 113.5t-108 310.5q0 184 121.5 328.5t336.5 144.5q88 0 166 -31t146.5 -96.5t108.5 -188t40 -288.5q0 -227 -83 -425 t-248.5 -324t-380.5 -126q-131 0 -203 65.5t-72 143.5zM332 836q0 -193 58.5 -285t184.5 -92q98 0 182.5 87t84.5 271q0 190 -80 298t-187 108q-244 0 -243 -387z" />
<glyph unicode=":" horiz-adv-x="679" d="M203 118.5q0 57.5 40 97.5t97 40t97 -40t40 -97.5t-40 -96t-97 -38.5t-97 38.5t-40 96zM203 792.5q0 57.5 40 97.5t97 40t97 -40t40 -97.5t-40 -96.5t-97 -39t-97 39t-40 96.5z" />
<glyph unicode=";" horiz-adv-x="679" d="M176 -295q190 113 207 299h-55q-74 0 -108 37t-34 92q0 47 35 84t92 37q172 0 172 -217q0 -86 -54 -169t-111.5 -128t-118.5 -80zM211 803q0 59 37 94t92 35q57 0 90 -40t33 -93q0 -57 -33 -98.5t-92 -41.5t-93 39t-34 105z" />
<glyph unicode="&#x3c;" horiz-adv-x="1146" d="M113 492v81l905 420v-106l-776 -355l776 -354v-106z" />
<glyph unicode="=" horiz-adv-x="1187" d="M141 322v94h906v-94h-906zM141 649v94h906v-94h-906z" />
<glyph unicode="&#x3e;" horiz-adv-x="1146" d="M129 72v106l776 354l-776 355v106l905 -420v-81z" />
<glyph unicode="?" horiz-adv-x="987" d="M109 1190q0 82 94 145.5t248 63.5q209 0 321.5 -114t112.5 -296q0 -170 -127 -286.5t-326 -141.5l-8 -196h-59v352q70 10 120 25.5t101 46t78.5 85t27.5 132.5q0 338 -246 337q-102 0 -137 -43q0 -2 9.5 -36.5t9.5 -84t-39 -78t-76 -28.5q-51 0 -77.5 33t-26.5 84z M262 110.5q0 57.5 40 97.5t97.5 40t97.5 -40t40 -97.5t-40 -96.5t-97.5 -39t-97.5 39t-40 96.5z" />
<glyph unicode="@" horiz-adv-x="2048" d="M168 367q0 186 73.5 362t201.5 312.5t319.5 219t413.5 82.5q170 0 304 -55t215 -149.5t122 -210t41 -244.5q0 -244 -160 -430t-369 -186q-84 0 -136 43t-58 120l-7 2q-104 -162 -229 -161q-98 0 -163.5 62.5t-65.5 205.5q0 94 52 214t164.5 219t250.5 99q55 0 95 -31.5 t50 -90.5h6l41 110h144l-189 -538q-20 -55 -20 -107q0 -94 86 -94q172 0 310 162.5t138 412.5q0 258 -166 420t-461 162q-152 0 -296 -61.5t-259.5 -172t-186.5 -284.5t-71 -383q0 -340 195 -537.5t494 -197.5q670 0 872 604l37 -13q-92 -313 -339 -493t-570 -180 q-170 0 -326 52t-280 150.5t-198.5 255t-74.5 349.5zM836 307q0 -174 86 -174q117 0 219 178l125 369q-25 152 -133 151q-80 0 -151 -91t-108.5 -210.5t-37.5 -222.5z" />
<glyph unicode="A" d="M-49 0v45q82 4 143 39q63 37 117 160q68 166 471 1177h78q117 -295 287 -730t198 -509q27 -68 84 -100q59 -33 135 -37v-45h-645v45q70 4 138.5 24.5t68.5 55.5q0 25 -8 47l-127 324h-504q-53 -127 -82 -226q-22 -69 -22 -110q0 -53 78.5 -82t152.5 -33v-45h-563z M414 563h450l-227 572z" />
<glyph unicode="B" horiz-adv-x="1366" d="M88 0v45q96 6 152 27q63 25 63 98v1047q0 76 -63 102q-72 31 -144 35v45h701q88 0 173 -22.5t156.5 -89t71.5 -169.5q0 -158 -90 -232.5t-264 -123.5v-19q63 -8 128.5 -28.5t137.5 -61.5t117 -114.5t45 -167.5q0 -123 -80 -211t-182.5 -124t-208.5 -36h-713zM520 182 q10 -68 55.5 -96.5t137.5 -28.5q166 0 236.5 104t70.5 251q0 129 -86 215t-240 86q-100 0 -174 -4v-527zM520 768h127q160 0 232.5 85t72.5 226q0 139 -76.5 201.5t-187.5 62.5q-70 0 -168 -4v-571z" />
<glyph unicode="C" horiz-adv-x="1337" d="M76 682q0 317 205.5 530t515.5 213q82 0 172 -32.5t137 -77.5l61 104h84l9 -506h-50q-141 453 -477 453q-172 0 -291.5 -170t-119.5 -498q0 -272 143 -447t348 -175q174 0 277.5 80t169.5 227l53 -29q-170 -385 -559 -385q-305 0 -491.5 194.5t-186.5 518.5z" />
<glyph unicode="D" horiz-adv-x="1595" d="M88 0v45q98 0 152 21q63 25 63 100v1051q0 78 -63 104q-70 29 -144 33v45h660q92 0 187 -19.5t201.5 -69.5t187.5 -127t134.5 -205t53.5 -288q0 -172 -70 -308t-185.5 -217t-256 -123t-293.5 -42h-627zM520 217q10 -80 60.5 -119t162.5 -39q260 0 392.5 172t132.5 461 q0 283 -157 466t-413 183q-88 0 -178 -4v-1120z" />
<glyph unicode="E" horiz-adv-x="1363" d="M78 0v45q117 6 162 25q63 25 63 100v1047q0 76 -63 100q-76 33 -162 37v45h1128v-318h-55q-18 74 -88 160t-131 94q-66 8 -170 8h-242v-589h178q53 0 91 12t49.5 21.5t32 30t39 80.5t24.5 108h55v-572h-55q-4 45 -24.5 111.5t-39.5 87.5q-59 63 -172 63h-178v-450 q0 -123 43 -155t201 -32q231 0 291 21q29 10 45 26q43 43 95 138.5t71 148.5h51l-27 -393h-1212z" />
<glyph unicode="F" horiz-adv-x="1253" d="M78 0v45q127 6 162 21q63 25 63 100v1051q0 76 -63 100q-76 33 -162 37v45h1143v-332h-56q-18 76 -87.5 168t-131.5 100q-66 8 -170 8h-256v-595h182q113 0 183 63q47 45 63 188h56v-575h-56q-4 49 -23.5 115.5t-39.5 87.5q-63 63 -183 63h-182v-514q0 -74 64 -100 q61 -25 155 -31v-45h-661z" />
<glyph unicode="G" horiz-adv-x="1527" d="M76 668q0 319 221 538t551 219q86 0 182 -33.5t146 -76.5l65 104h80l10 -491h-47q-61 188 -189 313t-327 125q-186 0 -314 -181t-128 -503q0 -279 133 -463t325 -184q158 0 248 75.5t103 182.5v125q0 94 -68 121q-68 25 -203 32v47h678v-47q-127 -20 -145 -28 q-61 -29 -62 -107v-475l-26 -8l-111 125q-287 -109 -493 -109q-115 0 -225.5 46t-201 131t-146.5 221.5t-56 300.5z" />
<glyph unicode="H" horiz-adv-x="1746" d="M96 0v45q104 6 144 21q63 25 63 100v1051q0 74 -63 100q-82 33 -144 37v45h635v-45q-82 -4 -147 -27q-63 -20 -64 -100v-465h707v455q0 74 -64 100q-80 33 -147 37v45h635v-45q-76 -4 -144 -27q-63 -20 -63 -100v-1051q0 -70 63 -100q51 -27 144 -31v-45h-635v45 q111 6 147 21q63 25 64 100v528h-707v-518q0 -74 64 -100q61 -27 147 -31v-45h-635z" />
<glyph unicode="I" horiz-adv-x="831" d="M94 0v45q113 6 150 21q63 25 63 98v1055q0 74 -63 98q-86 33 -150 37v45h643v-45q-84 -4 -149 -27q-63 -20 -64 -98v-1055q0 -72 64 -98q61 -27 149 -31v-45h-643z" />
<glyph unicode="J" horiz-adv-x="1011" d="M0 158q0 61 40 104t101.5 43t97 -37t35.5 -94q0 -92 -84 -139v-10q16 -4 37 -5q78 0 134.5 26t87 62.5t48 98t21.5 114t4 128.5v768q0 72 -63 100q-70 33 -166 37v45h665v-45q-90 -4 -155 -27q-63 -20 -64 -100v-846q0 -57 -29.5 -127t-84 -135.5t-145.5 -109.5t-197 -44 q-147 0 -215 59.5t-68 133.5z" />
<glyph unicode="K" horiz-adv-x="1511" d="M96 0v45q104 6 144 21q63 25 63 100v1051q0 74 -63 100q-82 33 -144 37v45h635v-45q-82 -4 -147 -27q-63 -20 -64 -100v-502h23q215 174 362.5 329.5t147.5 225.5q0 63 -166 74v45h579v-45q-199 -10 -288 -107q-41 -43 -115 -124t-109.5 -118.5t-96 -96t-126.5 -113.5 q23 -25 85.5 -88.5t85 -87t71.5 -77t76.5 -83t67.5 -74.5t75 -87t70 -87q76 -96 170 -137q55 -25 147 -29v-45h-750v45q57 2 92 7t70 25.5t35 57.5q0 78 -473 551h-33v-510q0 -74 64 -100q61 -27 147 -31v-45h-635z" />
<glyph unicode="L" horiz-adv-x="1288" d="M92 0v45q104 6 148 23q63 25 63 102v1042q0 74 -63 103q-80 35 -148 39v45h641v-45q-76 -4 -149 -29q-63 -20 -64 -102v-979q0 -129 39 -159t205 -30q250 0 301 54q43 45 103.5 142t74.5 146h49l-30 -397h-1170z" />
<glyph unicode="M" horiz-adv-x="1964" d="M37 0v45q141 16 190 51q68 47 68 283v749q0 117 -64 168q-68 53 -184 58v45h461l475 -1043l383 869q39 92 47 174h463v-45q-86 -4 -152 -27q-63 -20 -63 -100v-1051q0 -70 63 -100q49 -25 154 -31v-45h-676v45q141 8 178 27q66 35 66 104v1049l-531 -1202h-38 q-39 129 -109 284l-397 889v-807q0 -223 69 -280q25 -18 100.5 -40t110.5 -24v-45h-614z" />
<glyph unicode="N" horiz-adv-x="1609" d="M10 1354v45h422l856 -1077v694q0 231 -69 276q-29 18 -100.5 39t-108.5 23v45h610v-45q-31 -2 -98.5 -19.5t-89.5 -31.5q-68 -43 -68 -275v-1042h-76l-917 1155v-750q0 -223 69 -280q25 -20 101.5 -42t109.5 -24v-45h-614v45q29 2 101.5 22.5t88.5 32.5q68 47 68 281v721 q0 109 -66 162q-37 31 -107.5 59.5t-111.5 30.5z" />
<glyph unicode="O" horiz-adv-x="1587" d="M78 684q0 336 198 535q209 213 519 213q301 0 520 -213q92 -92 143 -226t51 -284q0 -338 -213 -545q-213 -197 -510 -197q-285 0 -489 193q-219 207 -219 524zM326 694q0 -291 119.5 -477t349 -186t348.5 185t119 486q0 178 -44 322.5t-153 244t-270 99.5 q-219 0 -344 -178t-125 -496z" />
<glyph unicode="P" horiz-adv-x="1271" d="M84 1354v45h686q188 0 313 -89t125 -243q0 -199 -157.5 -312.5t-370.5 -113.5h-160v-471q0 -78 64 -102q47 -18 161 -23v-45h-653v45q104 6 148 23q63 25 63 102v1051q0 84 -63 104q-76 25 -156 29zM520 702h101q84 0 147 24t98 58.5t55.5 80.5t26.5 81t6 70 q0 137 -67.5 231t-227.5 94h-139v-639z" />
<glyph unicode="Q" horiz-adv-x="1603" d="M78 684q0 336 198 535q209 213 519 213q301 0 520 -213q92 -92 143 -226.5t51 -283.5q0 -403 -354 -615q31 -139 121 -196.5t199 -57.5q137 0 239 158l41 -31q-61 -92 -176 -180t-250 -88q-129 0 -234.5 69.5t-148.5 227.5q-86 -27 -160 -27q-287 0 -489 191 q-219 207 -219 524zM326 694q0 -324 133 -501q49 127 141 184t191 57q111 0 206 -75.5t129 -190.5q136 163 136 534q0 178 -44 322.5t-153 244t-270 99.5q-219 0 -344 -178t-125 -496zM498 152q119 -123 297 -123q71 0 139 14q-23 303 -219 303q-51 0 -118 -43t-99 -151z " />
<glyph unicode="R" horiz-adv-x="1509" d="M92 0v45q104 6 148 23q63 25 63 102v1053q0 82 -63 102q-74 25 -148 29v45h715q111 0 206 -31t163.5 -104.5t68.5 -180.5q0 -250 -379 -356v-20q57 -6 114.5 -25.5t117 -69t78.5 -118.5q16 -59 36.5 -163t32.5 -151q27 -98 111 -98q45 0 66.5 39t21.5 143v43h53v-43 q0 -147 -57.5 -217t-190.5 -70q-121 0 -185.5 84t-86.5 263q-8 59 -16.5 100t-29 94t-49 85t-80.5 55.5t-120 23.5h-162v-512q0 -78 64 -102q43 -16 149 -23v-45h-641zM520 741h127q154 0 250 69.5t96 231.5q0 299 -293 299h-180v-600z" />
<glyph unicode="S" horiz-adv-x="1120" d="M90 459h47q74 -193 184.5 -308.5t284.5 -115.5q131 0 195.5 68.5t64.5 189.5q0 92 -53 161.5t-147 106.5q-231 92 -293 121q-242 106 -242 365q0 162 117 270t293 108q162 0 295 -102l69 96h70l10 -465h-45q-35 100 -67.5 164t-84 125.5t-125 91t-171.5 29.5 q-63 0 -129 -51t-66 -158q0 -90 45 -149.5t135 -108.5q55 -31 147.5 -65.5t131.5 -53.5q150 -68 219 -147.5t69 -231.5q0 -186 -132 -306t-330 -120q-209 0 -336 103l-72 -96h-70z" />
<glyph unicode="T" horiz-adv-x="1314" d="M16 1042v357h1282v-357h-49q-20 80 -89.5 182.5t-131.5 110.5q-66 8 -166 8h-96v-1161q0 -76 63 -102q18 -8 80 -20.5t88 -14.5v-45h-680v45q121 6 168 25q63 25 64 102v1171h-96q-100 0 -166 -8q-61 -8 -131 -110.5t-90 -182.5h-50z" />
<glyph unicode="U" horiz-adv-x="1619" d="M70 1354v45h637v-45q-82 -4 -148 -27q-63 -20 -63 -100v-817q0 -63 14 -118.5t51 -113t116 -90.5t191 -33q115 0 199 36t125 94.5t59.5 114.5t18.5 114v606q0 229 -70 274q-35 23 -101.5 40.5t-107.5 19.5v45h613v-45q-35 -2 -97.5 -16.5t-91.5 -32.5q-67 -42 -67 -266 v-7v-626q0 -96 -36 -173t-91.5 -125.5t-128 -81t-140 -46t-133.5 -13.5q-256 0 -399.5 116t-143.5 286v848q0 70 -63 102q-59 29 -143 35z" />
<glyph unicode="V" horiz-adv-x="1384" d="M-43 1354v45h635v-45q-70 -4 -134.5 -23.5t-64.5 -52.5q0 -25 10 -51q174 -487 345 -946q49 117 122.5 289.5t126 295.5t80.5 193q47 113 47 184q0 47 -75.5 76t-159.5 35v45h551v-45q-66 -4 -133 -41q-53 -31 -107 -150q-319 -739 -502 -1179h-75q-63 176 -447 1233 q-25 66 -84 100q-59 33 -135 37z" />
<glyph unicode="W" horiz-adv-x="2033" d="M-33 1354v45h625v-45q-72 -4 -137.5 -23.5t-65.5 -52.5q0 -27 8 -51q2 -10 48.5 -158.5t107.5 -348.5t127 -403l299 811q0 127 -94 187q-53 33 -158 39v45h637v-45q-70 -4 -133.5 -23.5t-63.5 -52.5q0 -23 9 -51q12 -37 51 -156t111.5 -341t131.5 -402q178 498 248 731 q41 141 41 184q0 49 -71.5 77t-157.5 34v45h551v-45q-66 -4 -133 -41q-63 -37 -107 -150q-102 -274 -420 -1179h-73q-164 547 -330 1056l-387 -1056h-78q-66 219 -152 497.5t-144 468t-81 267.5q-18 63 -76 100q-59 33 -133 37z" />
<glyph unicode="X" horiz-adv-x="1560" d="M-8 0v45q88 4 145 29q86 37 168 137q14 18 367 459q-272 381 -379 518q-74 102 -143 137q-45 23 -154 29v45h747v-45q-208 -10 -208 -89q0 -21 19 -61.5t74.5 -118t81 -112.5t105.5 -144q309 365 309 435q0 37 -34.5 57t-69.5 25.5t-92 7.5v45h581v-45q-88 -4 -145 -29 q-86 -37 -168 -137q-76 -90 -334 -416q371 -508 412 -561q74 -94 143 -141q25 -16 154 -25v-45h-748v45q211 10 211 90q0 18 -18.5 54t-57 93.5t-69.5 99.5t-88.5 121t-79.5 107q-287 -352 -330 -434q-14 -27 -14 -41q0 -37 34.5 -57.5t69.5 -25.5t92 -7v-45h-581z" />
<glyph unicode="Y" horiz-adv-x="1280" d="M-66 1354v45h660v-45q-207 -12 -207 -72q0 -39 318 -602q335 524 335 575q0 84 -221 99v45h533v-45q-63 -6 -119 -41q-57 -33 -115 -105q-53 -66 -111.5 -156.5t-98.5 -160.5t-115 -207q-61 -115 -62 -229v-273q0 -76 64 -102q18 -8 79.5 -20.5t88.5 -14.5v-45h-680v45 q121 6 168 25q63 25 63 102v356q0 47 -53 154q-150 293 -271 498q-55 98 -124 139q-55 31 -132 35z" />
<glyph unicode="Z" horiz-adv-x="1282" d="M8 0v25l961 1318h-383q-115 0 -166 -10q-76 -16 -159 -117.5t-120 -193.5h-49l43 377h1104v-25l-960 -1319h428q246 0 301 54q61 57 120.5 148t88.5 163h49l-47 -420h-1211z" />
<glyph unicode="[" horiz-adv-x="1269" d="M150 -326v1815l47 -16q397 -90 692 -91q70 0 111.5 7.5t57 24t17.5 26.5t2 33q0 41 -33 86l43 16q20 -14 40 -50t20 -73q0 -98 -89 -165.5t-224 -67.5q-49 0 -90.5 3t-88.5 16t-72.5 19.5t-82 31t-71.5 31.5t-87 43l-88 44v-1651q23 10 78 39t75.5 38t66.5 30.5t68.5 29 t63.5 20.5t73 18.5t72 9.5t83 4q135 0 224 -68t89 -166q0 -59 -66 -125l-45 17q41 37 41 88v19t-9 21.5t-27.5 24.5t-57.5 16.5t-94 8.5q-291 0 -692 -90z" />
<glyph unicode="\" horiz-adv-x="860" d="M76 1513l96 27l639 -1948l-94 -26z" />
<glyph unicode="]" horiz-adv-x="1198" d="M117 -289q0 98 84 166t211 68q45 0 85 -3t84 -15.5t68.5 -19.5t75.5 -32t68.5 -33t82 -41.5t82.5 -44.5v1651q-18 -10 -82.5 -44t-82 -42t-68.5 -32.5t-75.5 -32t-68.5 -19.5t-84 -15t-85 -3q-127 0 -211 67.5t-84 165.5q0 37 18.5 73t36.5 50l41 -16q-31 -43 -31 -86 q0 -23 2 -32t16.5 -26.5t54.5 -25t105 -7.5q279 0 652 91l45 16v-1815l-45 17q-377 90 -652 90q-53 0 -90 -8.5t-53 -16.5t-25.5 -24.5t-9.5 -21.5v-19q0 -53 39 -88l-43 -17q-61 61 -61 125z" />
<glyph unicode="^" horiz-adv-x="1808" d="M121 444q0 84 36 147.5t76.5 93.5t110.5 69q-145 100 -145 262q0 100 93 192t220 92q139 0 232.5 -71.5t123.5 -188.5l-34 -16q-55 88 -108.5 126t-135.5 38q-102 0 -168 -68.5t-66 -175.5q0 -47 1 -66.5t12.5 -50t33.5 -49.5q115 41 168 41q61 0 97.5 -25.5t36.5 -64.5 q0 -35 -24 -58.5t-69 -23.5q-92 0 -225 82q-121 -51 -121 -184q0 -166 181.5 -291t482.5 -125q270 0 431 149.5t161 348.5q0 170 -88 252t-217 82q-92 0 -158 -50.5t-66 -136.5q0 -94 44 -138t118 -44q47 0 96 31q-2 2 -16 7t-18.5 6t-16.5 7t-16 9t-14.5 9.5t-13.5 10.5 t-10 12t-9 15.5t-4.5 17.5t-2.5 20q0 51 31 75t66 24q135 0 135 -125q0 -63 -50 -116.5t-132 -53.5q-100 0 -182.5 69.5t-82.5 188.5q0 78 34 136t90.5 88t113.5 43t117 13q27 0 113.5 -5t109.5 -5q80 0 130 51t50 109q0 158 -149 157q-68 0 -68 -43q4 -6 26.5 -16t39 -26.5 t16.5 -45.5q0 -90 -92 -90q-49 0 -83 31t-34 92q0 55 52.5 98.5t136.5 43.5q94 0 159.5 -59t65.5 -157q0 -123 -91 -192.5t-249 -69.5q96 -41 145 -114.5t49 -221.5q0 -80 -26.5 -164.5t-91 -174t-157.5 -158t-240.5 -112.5t-327.5 -44q-264 0 -448.5 139.5t-184.5 341.5z " />
<glyph unicode="_" horiz-adv-x="1228" d="M-10 -225h1249v-92h-1249v92z" />
<glyph unicode="`" horiz-adv-x="1024" d="M328 1419q0 31 23.5 54.5t58.5 23.5q74 0 125 -88q100 -168 198 -311l-28 -25q-94 76 -189.5 147.5t-114.5 86.5q-41 33 -57 55t-16 57z" />
<glyph unicode="a" horiz-adv-x="1003" d="M76 193q0 115 53 172t147 92q20 8 156.5 54t188.5 75v114q0 25 -4.5 50.5t-19.5 65.5t-54 65.5t-99 25.5q-16 0 -30.5 -2t-25.5 -8t-19.5 -10t-17.5 -13.5t-12 -12.5t-11 -13l-9 -10q0 -14 9.5 -55.5t9.5 -65.5q0 -35 -33 -61.5t-86 -26.5q-47 0 -69.5 30.5t-22.5 75.5 q0 88 103.5 152.5t226.5 64.5q86 0 142 -9t108.5 -39t77 -93t24.5 -162q0 -104 -5 -271t-5 -188q0 -31 25.5 -67.5t70.5 -36.5q25 0 40 12.5t23.5 39t10.5 47t6 59.5h45q-16 -264 -217 -264q-133 0 -180 137h-7q-121 -141 -303 -142q-106 0 -171.5 59.5t-65.5 158.5z M274 223q0 -164 140 -164q72 0 113.5 27t86.5 82l9 358q-182 -57 -265.5 -117.5t-83.5 -185.5z" />
<glyph unicode="b" horiz-adv-x="1128" d="M-23 1466v39l363 23l14 -15v-684l6 -2q115 125 277 125q180 0 303 -136t123 -357q0 -207 -139.5 -347.5t-325.5 -140.5q-162 0 -324 103l-75 -121l-39 8q8 109 8 379v975q0 82 -55 117q-45 31 -136 34zM354 201q25 -70 80 -128.5t148 -58.5q121 0 196.5 119t75.5 324 q0 109 -27.5 198.5t-94 151t-165.5 61.5q-131 0 -213 -96v-571z" />
<glyph unicode="c" horiz-adv-x="890" d="M66 467q0 197 125.5 341t328.5 144q152 0 235 -68.5t83 -168.5q0 -53 -28 -84t-79 -31q-41 0 -78 24.5t-37 77.5q0 49 13.5 81t13.5 46q-8 43 -36.5 58.5t-86.5 15.5q-102 0 -175 -101.5t-73 -316.5q0 -184 77 -301.5t210 -117.5q104 0 171 44t120 138l39 -29 q-59 -106 -160.5 -175t-218.5 -69q-215 0 -329.5 135.5t-114.5 356.5z" />
<glyph unicode="d" horiz-adv-x="1157" d="M66 475q0 205 140 341t326 136q115 0 248 -55v406q-8 88 -53 118q-53 37 -180 47v37l405 23l15 -15v-1329q6 -68 53 -100q33 -23 121 -27v-39l-344 -22l-15 14v88l-8 2q-121 -127 -272 -127q-184 0 -310 138.5t-126 363.5zM274 453q0 -168 76 -284t221 -116 q113 1 209 105v579q-20 66 -78.5 118t-152.5 52q-119 0 -197 -124t-78 -330z" />
<glyph unicode="e" horiz-adv-x="933" d="M66 471q0 195 117.5 338t312.5 143q197 0 290 -110.5t93 -282.5v-18h-611v-23q0 -211 74 -331.5t231 -120.5q113 0 169.5 39.5t119.5 142.5l37 -25q-55 -113 -155.5 -180.5t-225.5 -67.5q-221 0 -336.5 140.5t-115.5 355.5zM268 586l412 4q0 315 -186 315q-96 0 -159 -88 t-67 -231z" />
<glyph unicode="f" horiz-adv-x="651" d="M4 836v86h209v63q0 272 139 420q117 125 301 125q106 0 161.5 -53t55.5 -127q0 -35 -30.5 -71t-79.5 -36q-43 0 -81 22.5t-38 69.5q0 14 6 49t6 60q-12 39 -49 39q-98 0 -146 -102.5t-57 -333.5q0 -14 -1 -60.5t-1 -64.5h258v-86h-258v-678q0 -72 56 -92q49 -20 133 -25 v-41h-520v41q49 2 90 14q55 18 55 92v689h-209z" />
<glyph unicode="g" horiz-adv-x="1040" d="M37 -213q0 90 84 151.5t239 65.5v14q-215 61 -215 183q0 29 14.5 54.5t28 38.5t49 31.5t44 22.5t47.5 19v12q-231 92 -232 272q0 137 104.5 219t262.5 82q61 0 125.5 -15t105.5 -30.5t49 -15.5q98 61 207 61q37 0 67 -28.5t30 -69.5q0 -45 -23 -72.5t-63 -27.5 q-49 0 -69 31.5t-20 99.5q-80 0 -127 -35v-14q78 -84 78 -195q0 -127 -106.5 -209t-239.5 -82h-119q-71 -35 -71 -87q0 -44 31.5 -66.5t69.5 -27.5t95 -7h23q35 -2 127 -7t102 -5q100 -4 181 -81t81 -198q0 -150 -130 -242t-384 -92q-446 0 -446 250zM211 -225 q0 -72 75.5 -128.5t231.5 -56.5q152 0 234 60.5t82 179.5q0 111 -105 143q-104 14 -317 15q-109 -23 -155 -71t-46 -142zM289 653q0 -111 47 -183.5t123 -72.5q86 0 130 72t44 178q0 113 -43 186.5t-133 73.5q-168 0 -168 -254z" />
<glyph unicode="h" horiz-adv-x="1177" d="M0 1466v39l365 23l14 -15v-729h4q98 94 152 123q80 45 184 45q139 0 206.5 -86t67.5 -237v-473q0 -68 54 -93q47 -20 90 -22v-41h-484v41q57 4 97 14q55 18 55 92v494q0 100 -50 159.5t-120 59.5q-98 0 -165 -47t-91 -96v-559q0 -68 55 -92q47 -23 96 -25v-41h-483v41 q49 2 90 14q55 18 56 92v1168q-8 86 -56 119q-41 27 -137 32z" />
<glyph unicode="i" horiz-adv-x="585" d="M37 877v38l348 23l14 -14v-764q0 -70 56 -94q49 -20 90 -25v-41h-477v41q49 2 90 14q55 18 55 92v588q-6 70 -55 103q-53 35 -121 39zM164 1339q0 53 37 91t88 38q55 0 92 -35.5t37 -84.5q0 -55 -37 -94.5t-92 -39.5q-51 0 -88 37t-37 88z" />
<glyph unicode="j" horiz-adv-x="595" d="M-184 -309q0 39 32.5 73.5t81.5 34.5q47 0 82 -25.5t35 -74.5q0 -20 -9 -56t-9 -53q18 -6 43 -6q92 0 128 99.5t36 339.5v704q-8 76 -56 109q-18 12 -77.5 26.5t-90.5 16.5v36l396 23l14 -14v-840q0 -285 -129 -420q-121 -127 -266 -127q-98 0 -154.5 43t-56.5 111z M182 1339q0 53 37 91t88 38q55 0 92 -35.5t37 -84.5q0 -55 -37 -94.5t-92 -39.5q-51 0 -88 37t-37 88z" />
<glyph unicode="k" horiz-adv-x="1093" d="M0 1466v39l365 23l14 -15v-1052q182 172 326 323q27 27 26 45q0 41 -127 56v41h412v-39q-164 -47 -252 -123q-96 -82 -182 -168q49 -23 94 -58.5t71.5 -60t65.5 -86t49 -80t52 -99.5t49 -93q18 -39 75 -62q45 -18 80 -18v-39h-325q-43 147 -139.5 296.5t-186.5 149.5 q-53 0 -88 -30v-258q0 -72 55 -92q55 -23 96 -25v-41h-483v41q49 2 90 14q55 18 56 92v1166q-6 86 -56 119q-41 29 -137 34z" />
<glyph unicode="l" horiz-adv-x="571" d="M-4 1466v39l371 23l14 -15v-1353q0 -70 55 -94q47 -23 90 -25v-41h-477v41q49 2 90 14q55 18 56 92v1162q-8 84 -56 116q-18 12 -66 25.5t-77 15.5z" />
<glyph unicode="m" horiz-adv-x="1789" d="M51 877v38l330 23l14 -14v-142h6l30 30t32 31t30.5 26.5t37 27.5t40 21.5t47 18.5t51 10t62.5 5q186 0 264 -176q6 6 31 29.5t34 32t32.5 29t38 28.5t41 22.5t49 19.5t52.5 10t62 5q137 0 204 -90t67 -244v-460q0 -70 53 -95q45 -20 96 -22v-41h-481v41q47 2 88 14 q55 18 55 92v496q0 102 -48 159.5t-118 57.5q-98 0 -159.5 -45t-90.5 -96v-561q0 -70 54 -95q47 -20 90 -22v-41h-471v41q41 2 84 14q55 18 55 92v496q0 102 -48 159.5t-118 57.5q-168 0 -250 -143v-557q0 -70 56 -94q47 -23 92 -25v-41h-479v41q49 2 90 14q55 18 55 92v592 q-6 68 -55 101q-51 35 -105 37z" />
<glyph unicode="n" horiz-adv-x="1196" d="M55 877v38l328 23l14 -14v-140h4q2 2 25 24.5t29 28t27.5 25t32.5 25.5t32.5 20.5t39 19.5l42 12t50.5 10t54 3q139 0 209 -86t70 -237v-473q0 -68 53 -93q47 -20 90 -22v-41h-483v41q57 4 96 14q55 18 55 92v494q0 100 -50 159.5t-120 59.5q-98 0 -164.5 -47t-91.5 -96 v-559q0 -68 56 -92q47 -23 96 -25v-41h-483v41q49 2 90 14q55 18 55 92v588q-8 76 -55 109q-45 29 -101 33z" />
<glyph unicode="o" horiz-adv-x="1071" d="M63 459q0 219 131.5 356t346.5 137q211 0 339 -135t128 -344q0 -213 -129 -357.5t-353 -144.5q-193 0 -328 134.5t-135 353.5zM270 475q0 -199 66.5 -328t202.5 -129q129 0 195.5 128t66.5 325q0 184 -62.5 309t-199.5 125q-76 0 -131.5 -39t-84 -104.5t-41 -136 t-12.5 -150.5z" />
<glyph unicode="p" horiz-adv-x="1153" d="M27 -422q59 4 112 19q53 16 54 96v1046q-6 70 -54 103q-47 31 -112 35v38l335 23l15 -12v-105l8 -2q123 133 277 133q180 0 302.5 -138t122.5 -359q0 -205 -139 -342.5t-325 -137.5q-150 0 -236 64h-8v-334q0 -74 57 -96q66 -27 142 -31v-41h-551v41zM379 182 q20 -61 78.5 -112.5t148.5 -51.5q121 0 197 117t76 322q0 109 -28 198.5t-94.5 151t-164.5 61.5q-125 0 -213 -102v-584z" />
<glyph unicode="q" horiz-adv-x="1128" d="M66 475q0 205 141 341t330 136q39 0 76.5 -6t65.5 -13t58.5 -20.5t45 -20.5t38 -20.5t25.5 -15.5l100 125l37 -8q-16 -328 -16 -359v-905q0 -76 55 -100q53 -23 121 -31v-41h-533v41q61 4 115 19q55 16 55 96v399l-6 2q-113 -119 -272 -119q-184 0 -310 138.5t-126 361.5 zM274 453q0 -168 76 -283t221 -115q121 1 209 95v587q-23 68 -80 120t-151 52q-119 0 -197 -125t-78 -331z" />
<glyph unicode="r" horiz-adv-x="808" d="M55 877v38l328 23l14 -14v-140h4q129 164 277 164q49 0 89 -38t40 -87q0 -55 -28.5 -92t-80.5 -37q-110 0 -110 97q0 12 7 31.5t7 33.5q-70 0 -125 -43t-80 -90v-565q0 -72 56 -92q49 -20 133 -25v-41h-520v41q49 2 90 14q55 18 55 92v588q-8 76 -55 109q-45 29 -101 33z " />
<glyph unicode="s" horiz-adv-x="821" d="M66 307h43q20 -92 109 -189.5t200 -97.5q192 0 192 175q0 78 -55 118.5t-184 79.5q-279 82 -279 291q0 117 84 192.5t223 75.5q135 0 213 -53l17 55h63l15 -282h-43q-16 94 -91 163.5t-180 69.5q-160 0 -160 -147q0 -82 47.5 -115t192.5 -80q137 -45 208 -112.5 t71 -186.5q0 -133 -98.5 -213t-245.5 -80q-70 0 -142.5 27t-101.5 55l-21 -63h-67z" />
<glyph unicode="t" horiz-adv-x="706" d="M-2 834v88h201v317h178v-317h280v-88h-278v-547q0 -94 35 -143.5t123 -49.5q49 0 76.5 28t33.5 52.5t15 79.5h45q-12 -117 -84 -195.5t-181 -78.5q-248 0 -247 282v572h-197z" />
<glyph unicode="u" horiz-adv-x="1161" d="M29 874v39l329 25l15 -14v-652q0 -102 46 -158.5t116 -56.5q162 0 247 140v548q-6 70 -53 103q-35 23 -133 26v39l358 25l15 -14v-742q6 -66 53 -98q35 -23 98 -27v-39l-321 -22l-15 14v125h-6q-57 -57 -83.5 -80.5t-94.5 -51.5t-149 -28q-137 0 -202 90.5t-65 243.5v430 q-6 70 -53 103q-45 29 -102 32z" />
<glyph unicode="v" horiz-adv-x="956" d="M-27 883v43h455v-47q-117 -4 -117 -43q0 -8 15 -43q16 -45 53 -137.5t88 -220.5t84 -210h6q176 424 217 529q10 25 10 57q-2 27 -56 48.5t-95 25.5v41h364v-39q-35 -6 -86 -40t-69 -75q-39 -88 -240 -565q-43 -100 -80 -221h-71q-84 213 -326 796q-37 84 -152 101z" />
<glyph unicode="w" horiz-adv-x="1503" d="M-16 883v43h442v-47q-109 -4 -109 -43q0 -8 15 -43q23 -57 103.5 -261t117.5 -296h6q184 477 186 481q-2 6 -7 17t-14 29.5t-15 31.5q-35 78 -136 88v43h424v-45q-106 -4 -106 -41q0 -12 14 -47q53 -143 213 -560h6q127 328 195 529q10 31 10 53q0 33 -54 51.5t-91 18.5 v41h368v-41q-47 -4 -99 -39t-71 -84q-37 -92 -221 -559q-43 -106 -78 -217h-57q-129 354 -252 663q-35 -80 -101.5 -253t-74.5 -193q-47 -115 -80 -217h-61q-190 479 -324 794q-16 39 -60 69t-89 34z" />
<glyph unicode="x" horiz-adv-x="964" d="M0 0v39q135 49 195 125q10 12 44.5 55t80 99.5t88.5 115.5q-10 14 -104.5 153.5t-137.5 203.5q-61 92 -152 92v43h422v-43q-33 0 -63.5 -8.5t-30.5 -20.5t18 -45q10 -16 38 -57t67 -100.5t63 -96.5q100 139 164 233q10 14 10 37q0 33 -112 60v41h350v-39 q-135 -41 -199 -117q-74 -92 -188 -250q160 -233 254 -373q23 -35 37 -50t44 -30.5t77 -23.5v-43h-445v43q111 8 111 43q0 10 -29 61q-12 18 -70.5 104.5t-99.5 147.5q-20 -27 -60 -77t-70 -88.5t-56 -81.5q-20 -31 -21 -48q0 -27 47 -44t80 -19v-41h-352z" />
<glyph unicode="y" horiz-adv-x="946" d="M-27 883v43h449v-47q-111 -4 -111 -43q0 -8 15 -43q20 -53 103 -257t124 -307h4q145 348 213 525q12 33 12 57q0 27 -54 48.5t-93 25.5v41h354v-39q-33 -6 -82 -40t-69 -75q-20 -47 -57.5 -136t-88.5 -211t-80 -192l-106 -264q-68 -152 -118 -241.5t-96 -129.5t-78 -50.5 t-87 -10.5q-53 0 -102.5 35t-49.5 104q0 43 33 81t84 38q43 0 75 -23.5t32 -78.5v-72q53 12 116.5 102.5t102.5 174.5l37 82q-51 127 -330 802q-37 84 -152 101z" />
<glyph unicode="z" horiz-adv-x="894" d="M49 0v31l559 841h-83.5h-94t-72 -2t-75 -7t-47.5 -13q-61 -25 -97 -191h-53v267h752v-19l-566 -854q68 -2 172 -2q92 0 203 6q61 2 92 80q39 96 58 172h49v-309h-797z" />
<glyph unicode="{" horiz-adv-x="880" d="M63 535v108q170 14 250 65.5t80 200.5q0 43 -16.5 133.5t-16.5 131.5q0 207 110 278.5t345 71.5v-47q-63 -4 -97 -10.5t-80 -29t-67.5 -72.5t-21.5 -130q0 -41 9 -117t9 -117q0 -102 -27.5 -173.5t-84 -112.5t-111.5 -62.5t-141 -38.5v-51q86 -16 141 -37.5t111.5 -62.5 t84 -112.5t27.5 -174.5q0 -41 -9 -116.5t-9 -116.5q0 -80 21.5 -130.5t67.5 -73t80 -28.5t97 -10v-47q-236 0 -345.5 71.5t-109.5 278.5q0 41 16.5 131t16.5 133q0 150 -81 202t-249 65z" />
<glyph unicode="|" horiz-adv-x="610" d="M256 -424v1952h98v-1952h-98z" />
<glyph unicode="}" horiz-adv-x="880" d="M66 -299q63 4 97 10t80 28.5t67.5 73t21.5 130.5q0 41 -9.5 116.5t-9.5 116.5q0 102 28 174t84 113t111.5 62.5t141.5 37.5v51q-86 16 -141.5 38t-111.5 63t-84 112.5t-28 173.5q0 41 9.5 117t9.5 117q0 80 -21.5 130t-67.5 72.5t-80 29t-97 10.5v47q236 0 345 -72 t109 -278q0 -41 -16.5 -131.5t-16.5 -133.5q0 -150 80 -201t250 -65v-108q-168 -12 -249 -64.5t-81 -202.5q0 -43 16.5 -133t16.5 -131q0 -207 -109.5 -278.5t-344.5 -71.5v47z" />
<glyph unicode="~" horiz-adv-x="1105" d="M113 397q27 96 107.5 176t174.5 80q84 0 195.5 -45t159.5 -45q78 0 121.5 25.5t78.5 91.5l41 -14q-27 -96 -107.5 -176t-174.5 -80q-90 0 -200 45t-155 45q-78 0 -122 -25.5t-78 -91.5z" />
<glyph unicode="&#xa1;" horiz-adv-x="747" d="M231 1288.5q0 57.5 40 96t97.5 38.5t97.5 -38.5t40 -96t-40 -97.5t-97.5 -40t-97.5 40t-40 97.5zM242 111q0 35 17 160.5t43 326.5t42 365h53q12 -166 38 -363t43.5 -325.5t17.5 -163.5q0 -57 -36 -98.5t-91.5 -41.5t-91 41t-35.5 99z" />
<glyph unicode="&#xa2;" horiz-adv-x="983" d="M94 621q0 199 127 342t338 143q31 0 45 -2l64 268l49 -10l-64 -264q119 -18 181.5 -82t62.5 -148q0 -53 -27.5 -83.5t-78.5 -30.5q-41 0 -78 24.5t-37 77.5q0 49 13 81t13 46q-8 53 -59 66l-186 -791q59 -39 131 -39q104 0 170.5 44t120.5 138l39 -28q-59 -106 -161 -175 t-218 -69q-53 0 -111 10l-88 -375l-47 11l88 377q-141 47 -214 170.5t-73 298.5zM297 639q0 -225 117 -346l180 764h-35q-113 0 -187.5 -101.5t-74.5 -316.5z" />
<glyph unicode="&#xa3;" horiz-adv-x="1652" d="M-76 -20q0 88 110.5 143t260.5 55q98 0 268 -37q10 51 10 84q0 12 -6 142h-340v45h340l-2 166h-325v47h325q12 369 167 587t409 218q106 0 187 -33t125 -86.5t65.5 -112t21.5 -117.5q0 -145 -88 -236t-233 -91q-102 0 -172 72.5t-70 183.5q0 88 35 159l45 -8 q-29 -68 -29 -143q0 -90 51 -148.5t140 -58.5q90 0 141 70.5t51 189.5q0 125 -63.5 216t-194.5 91q-172 0 -262 -131t-90 -454q0 -96 -8 -168h327v-47h-329q-4 -39 -31 -166h344v-45h-352q-31 -117 -111 -248q57 -18 145 -63.5t165 -72t161 -26.5q66 0 113 27.5t74.5 78 t42 97.5t24.5 108l59 -8q-55 -438 -497 -438q-39 0 -76 6t-86 25.5t-68.5 27.5t-84 41t-72.5 37q-133 -160 -363 -160q-131 0 -192.5 50.5t-61.5 130.5zM-16 -43q0 -100 192 -100q205 0 322 123q-201 94 -355 94q-80 0 -119.5 -34t-39.5 -83z" />
<glyph unicode="&#xa4;" horiz-adv-x="1177" d="M98 492v83h981v-83h-981zM244 76q0 100 117.5 200.5t275.5 100.5q139 0 231.5 -66.5t92.5 -160.5q0 -127 -88.5 -213.5t-325.5 -198.5q-80 -47 -107 -68h369q33 0 65.5 22.5t51 47t51.5 76.5l33 -17l-119 -260h-639v53q279 180 383 275q92 88 121.5 152.5t29.5 154.5 q0 76 -49 115t-116 39q-106 0 -181 -70t-75 -147q0 -43 19 -63.5t75 -20.5q33 0 66.5 23.5t45 37.5t39.5 51l31 -26q-43 -66 -111.5 -117t-148.5 -51q-57 0 -97 34.5t-40 96.5zM264 1477l17 30q88 -33 172 -32q111 0 229 59h29q-23 -109 -23 -209v-502q0 -49 47 -65 q25 -10 139 -19v-45h-544v45q135 8 143 13q49 14 49 65v582q-27 -6 -73 -6q-68 0 -185 84z" />
<glyph unicode="&#xa5;" horiz-adv-x="1185" d="M-14 1198v45h577v-45q-178 -12 -178 -55q0 -31 260 -490q272 428 273 467q0 63 -181 78v45h467v-45q-59 -6 -100 -33q-14 -8 -23.5 -15t-20.5 -17.5t-16.5 -16.5t-19.5 -24.5t-23 -28.5q-96 -121 -268 -434q-18 -35 -37 -86h316v-47h-328q-6 -33 -6 -64v-84h334v-47h-334 v-129q0 -72 59 -98q49 -23 154 -29v-45h-635v45q123 6 162 21q29 10 46 36.5t17 59.5v139h-321v47h321v148h-321v47h313q-8 35 -35 84q-84 168 -223 411q-55 96 -117 131q-41 25 -112 29z" />
<glyph unicode="&#xa7;" horiz-adv-x="1167" d="M154 694q0 115 79.5 182.5t186.5 81.5q-82 123 -82 250q0 121 96 212t232 91q113 0 176 -67.5t63 -136.5q0 -68 -32.5 -104t-90.5 -36q-43 0 -73.5 25t-30.5 72q0 43 43 69.5t43 46.5q0 82 -119 82q-172 0 -172 -211q0 -49 15.5 -91t34 -69.5t67.5 -93.5 q45 -59 135 -160.5t127 -144.5q88 -104 125 -173t37 -157q0 -209 -273 -251q90 -135 90 -271q0 -121 -95 -213t-228 -92q-117 0 -185.5 68.5t-68.5 138.5q0 68 32.5 103.5t90.5 35.5q43 0 73.5 -24.5t30.5 -71.5q0 -39 -41 -65.5t-41 -51.5q0 -86 123 -86q166 0 166 230 q0 70 -23.5 120t-86.5 134q-41 55 -129.5 148t-139.5 155q-84 100 -119.5 168.5t-35.5 156.5zM281 739q0 -82 100 -202q53 -66 172 -197t164 -195q162 43 162 172q0 88 -97 203q-53 66 -173 205t-165 197q-78 -14 -120.5 -53.5t-42.5 -129.5z" />
<glyph unicode="&#xa8;" horiz-adv-x="1024" d="M170 1321q0 49 35 85t82 36q53 0 88 -34t35 -79q0 -51 -36 -88t-87 -37q-47 0 -82 35t-35 82zM614 1321q0 49 35 85t84 36q51 0 86 -34t35 -79q0 -51 -35 -88t-86 -37q-49 0 -84 35t-35 82z" />
<glyph unicode="&#xa9;" horiz-adv-x="1929" d="M80 514q0 362 261 621.5t626 259.5q362 0 622 -259.5t260 -621.5q0 -365 -260 -625t-622 -260q-367 0 -627 260.5t-260 624.5zM158 514q0 -340 235.5 -577.5t573.5 -237.5q336 0 570.5 237.5t234.5 577.5q0 336 -234.5 572.5t-570.5 236.5q-338 0 -573.5 -236.5 t-235.5 -572.5zM489 506q0 213 146.5 355.5t372.5 142.5q133 0 223 -64l45 78h55l8 -371h-47q-47 139 -116.5 217t-206.5 78q-117 0 -198 -108.5t-81 -317.5q0 -180 93.5 -289.5t236.5 -109.5q117 0 185.5 56t119.5 161l45 -21q-129 -287 -391 -286q-223 0 -356.5 130 t-133.5 349z" />
<glyph unicode="&#xaa;" horiz-adv-x="671" d="M113 868q0 102 106 144q27 10 90.5 30.5t87.5 32.5v58q0 18 -4 37.5t-25.5 43t-58.5 23.5q-31 0 -61 -31q0 -8 5 -29.5t5 -33.5q0 -18 -18.5 -33.5t-46.5 -15.5q-53 0 -54 59q0 47 55.5 82t120.5 35q94 0 141.5 -31t47.5 -131q0 -55 -4 -142t-4 -98q0 -14 12 -31.5 t35 -17.5q35 0 39 80h28q-12 -145 -116 -145q-70 0 -95 75h2q-68 -78 -159 -77q-57 0 -93 31.5t-36 84.5zM121 545v53h463v-53h-463zM223 887q0 -82 70 -82q57 0 98 53l6 180q-45 -16 -70.5 -26.5t-53 -28.5t-39 -40.5t-11.5 -55.5z" />
<glyph unicode="&#xab;" horiz-adv-x="1146" d="M102 459q0 35 8.5 48t32.5 34q217 166 428 344l33 -27l-321 -403l321 -398l-33 -26q-76 61 -170 138t-157.5 127t-96.5 77q-23 16 -28.5 22t-11 21.5t-5.5 42.5zM530 459q0 35 8.5 48t32.5 34q217 166 428 344l33 -27l-321 -403l321 -398l-33 -26q-76 61 -170 138 t-157.5 127t-96.5 77q-23 16 -28.5 22t-11 21.5t-5.5 42.5z" />
<glyph unicode="&#xad;" horiz-adv-x="778" d="M82 434v156h614v-156h-614z" />
<glyph unicode="&#xae;" horiz-adv-x="970" d="M113 1067q0 158 107.5 265.5t265 107.5t265 -107.5t107.5 -265.5t-107.5 -265.5t-265 -107.5t-265 107.5t-107.5 265.5zM154 1067q0 -143 95 -241.5t236.5 -98.5t236.5 98.5t95 241.5t-95 241.5t-236.5 98.5t-236.5 -98.5t-95 -241.5zM295 872v21q16 0 41 6q18 8 18 31 v303q0 25 -18 31q-25 8 -41 8v20h215q53 0 94 -23.5t41 -70.5q0 -74 -119 -106v-7q80 -12 95 -65q4 -14 10 -45t10 -47q8 -27 29 -27q27 0 26 51h21q0 -86 -76 -86t-88 105q-12 100 -90 100h-35v-141q0 -23 18 -31q25 -6 41 -6v-21h-192zM428 1096h33q100 0 100 90 q0 84 -84 84h-49v-174z" />
<glyph unicode="&#xaf;" horiz-adv-x="1024" d="M174 1221v127h676v-127h-676z" />
<glyph unicode="&#xb0;" horiz-adv-x="839" d="M117 1145q0 131 92 220t207 89q127 0 217 -78.5t90 -228.5q0 -123 -94 -211t-213 -88q-125 0 -212 79t-87 218zM238 1153q0 -111 49 -177.5t135 -66.5q74 0 126 62.5t52 171.5q0 117 -48 182.5t-134 65.5q-84 0 -132 -65.5t-48 -172.5z" />
<glyph unicode="&#xb1;" horiz-adv-x="1785" d="M4 842v80h209v53q0 244 147 409q47 53 132.5 92.5t173.5 39.5q213 0 272 -148q12 18 46 51t114 72t166 39q117 0 215 -47l104 45l14 -15v-1353q0 -70 56 -94q47 -23 90 -25v-41h-475v41q47 2 88 14q57 18 57 92v1067q-66 18 -65 74q0 29 12 51.5t26.5 34.5t14.5 15 q-12 96 -150 96q-104 0 -179 -109.5t-75 -328.5v-125h252v-82h-252v-682q0 -72 56 -92q55 -23 102 -25v-41h-489v41q49 2 90 14q55 18 55 92v699h-412v-688q0 -72 56 -92q57 -23 92 -25v-41h-479v41q49 2 90 14q55 18 55 92v695h-209zM397 922h418v63q0 111 31 217 q-94 4 -94 78q0 31 5 50.5t13 32.5t8 15q-12 90 -127 90q-102 0 -178 -105.5t-76 -326.5v-114z" />
<glyph unicode="&#xb4;" horiz-adv-x="1024" d="M291 1098q98 143 198 311q51 88 125 88q35 0 58.5 -23.5t23.5 -54.5q0 -35 -16 -57.5t-57 -54.5q-18 -14 -113.5 -86t-190.5 -148z" />
<glyph unicode="&#xb5;" horiz-adv-x="1130" d="M-23 -393q0 68 60.5 295t116.5 377q80 301 100 358q41 106 117 106q41 0 61.5 -21.5t20.5 -45.5q0 -27 -36 -81t-87 -144.5t-80 -186.5v-51q0 -33 16.5 -57.5t46.5 -24.5q90 0 206 104.5t155 167.5q14 20 31.5 62.5t37 95.5t29.5 76q39 82 68 100q23 16 57 17 q86 0 86 -78q0 -25 -25.5 -61.5t-78 -111.5t-95.5 -161q-20 -61 -20 -133q0 -86 61 -86q49 0 124 47t134 131l33 -14q-27 -111 -106.5 -202t-173.5 -91q-47 0 -76 41t-36 80t-7 75q0 18 8 105h-8q-84 -125 -193.5 -213t-185.5 -88q-135 0 -160 180h-4q-76 -219 -92 -407 q10 -51 36.5 -100.5t26.5 -76.5q0 -31 -19.5 -59.5t-53.5 -28.5q-94 0 -95 105z" />
<glyph unicode="&#xb6;" horiz-adv-x="1267" d="M119 1044q0 137 93 246t288 109h735v-45h-291v-1610h-57v1610h-197v-1610h-57v956h-62q-131 0 -224 30t-140 82t-67.5 108.5t-20.5 123.5z" />
<glyph unicode="&#xb7;" horiz-adv-x="593" d="M160 557q0 57 41 98t98 41t98 -41t41 -98t-41 -97t-98 -40t-98 40t-41 97z" />
<glyph unicode="&#xb8;" horiz-adv-x="1024" d="M289 -412q168 0 213 17q66 25 65 90q0 35 -29.5 52t-60.5 20.5t-84 3.5v245h58v-129q264 1 264 -155q0 -63 -35 -105.5t-101.5 -61t-132 -24.5t-157.5 -6v53z" />
<glyph unicode="&#xba;" horiz-adv-x="708" d="M102 1005.5q0 116.5 70 190.5t184 74q113 0 181.5 -72.5t68.5 -183.5q0 -115 -68.5 -192t-187.5 -77q-102 0 -175 72t-73 188.5zM123 545v53h463v-53h-463zM221 1014q0 -100 33 -165t102 -65q66 0 97.5 64t31.5 164q0 94 -30.5 156.5t-98.5 62.5q-72 0 -103.5 -64.5 t-31.5 -152.5z" />
<glyph unicode="&#xbb;" horiz-adv-x="1146" d="M115 57l321 398l-321 403l32 27q211 -178 428 -344q27 -20 34 -33.5t7 -48.5q0 -27 -5 -42.5t-11 -21.5t-29 -22q-33 -27 -96 -77t-157.5 -127t-170.5 -138zM543 57l321 398l-321 403l32 27q211 -178 429 -344q27 -20 33.5 -33.5t6.5 -48.5q0 -27 -5 -42.5t-11 -21.5 t-29 -22q-33 -27 -96 -77t-157.5 -127t-170.5 -138z" />
<glyph unicode="&#xbd;" horiz-adv-x="1177" d="M98 492v83h981v-83h-981zM244 76q0 100 117.5 200.5t275.5 100.5q139 0 231.5 -66.5t92.5 -160.5q0 -127 -88.5 -213.5t-325.5 -198.5q-80 -47 -107 -68h369q33 0 65.5 22.5t51 47t51.5 76.5l33 -17l-119 -260h-639v53q279 180 383 275q92 88 121.5 152.5t29.5 154.5 q0 76 -49 115t-116 39q-106 0 -181 -70t-75 -147q0 -43 19 -63.5t75 -20.5q33 0 66.5 23.5t45 37.5t39.5 51l31 -26q-43 -66 -111.5 -117t-148.5 -51q-57 0 -97 34.5t-40 96.5zM264 1477l17 30q88 -33 172 -32q111 0 229 59h29q-23 -109 -23 -209v-502q0 -49 47 -65 q25 -10 139 -19v-45h-544v45q135 8 143 13q49 14 49 65v582q-27 -6 -73 -6q-68 0 -185 84z" />
<glyph unicode="&#xbf;" horiz-adv-x="987" d="M102 410q0 170 127 286.5t326 141.5l8 196h60v-352q-70 -10 -120 -25.5t-101.5 -46t-79 -85t-27.5 -132.5q0 -338 246 -338q102 0 137 43q0 2 -9.5 37t-9.5 84t39 78t76 29q51 0 78 -33t27 -84q0 -82 -94.5 -145.5t-247.5 -63.5q-209 0 -322 113.5t-113 296.5z M451 1288.5q0 57.5 39.5 96t97 38.5t97.5 -38.5t40 -96t-40 -97.5t-97.5 -40t-97 40t-39.5 97.5z" />
<glyph unicode="&#xc0;" d="M-49 0v45q82 4 143 39q63 37 117 160q68 166 471 1177h78q117 -295 287 -730t198 -509q27 -68 84 -100q59 -33 135 -37v-45h-645v45q70 4 138.5 24.5t68.5 55.5q0 25 -8 47l-127 324h-504q-53 -127 -82 -226q-23 -72 -22 -114q0 -49 78.5 -78t152.5 -33v-45h-563z M408 1833q0 31 23.5 54.5t57.5 23.5q74 0 125 -88q101 -169 199 -312l-29 -24q-94 76 -189 147.5t-114 85.5q-41 33 -57 55.5t-16 57.5zM414 563h450l-227 572z" />
<glyph unicode="&#xc1;" d="M-49 0v45q82 4 143 39q63 37 117 160q68 166 471 1177h78q117 -295 287 -730t198 -509q27 -68 84 -100q59 -33 135 -37v-45h-645v45q70 4 138.5 24.5t68.5 55.5q0 25 -8 47l-127 324h-504q-53 -127 -82 -226q-23 -72 -22 -114q0 -49 78.5 -78t152.5 -33v-45h-563z M414 563h450l-227 572zM618 1489q98 143 199 311q51 88 125 88q35 0 58.5 -23.5t23.5 -54.5q0 -35 -16.5 -57t-57.5 -55q-18 -14 -113.5 -86t-189.5 -148z" />
<glyph unicode="&#xc2;" d="M-49 0v45q82 4 143 39q63 37 117 160q68 166 471 1177h78q117 -295 287 -730t198 -509q27 -68 84 -100q59 -33 135 -37v-45h-645v45q70 4 138.5 24.5t68.5 55.5q0 25 -8 47l-127 324h-504q-53 -127 -82 -226q-23 -72 -22 -114q0 -49 78.5 -78t152.5 -33v-45h-563z M397 1436q109 160 234 350q20 31 33.5 38t56.5 7t54 -6t30 -35q23 -33 100.5 -151.5t134.5 -202.5l-30 -25l-293 275l-289 -275zM414 563h450l-227 572z" />
<glyph unicode="&#xc3;" d="M-49 0v45q82 4 143 39q63 37 117 160q68 166 471 1177h78q117 -295 287 -730t198 -509q27 -68 84 -100q59 -33 135 -37v-45h-645v45q70 4 138.5 24.5t68.5 55.5q0 25 -8 47l-127 324h-504q-53 -127 -82 -226q-23 -72 -22 -114q0 -49 78.5 -78t152.5 -33v-45h-563z M348 1495q33 92 100.5 174t155.5 82q86 0 181.5 -55.5t138.5 -55.5q80 0 110.5 27t61.5 92q6 12 8 19l41 -15q-25 -88 -98.5 -172t-163.5 -84t-184.5 55.5t-145.5 55.5q-59 0 -89 -28.5t-77 -110.5zM414 563h450l-227 572z" />
<glyph unicode="&#xc4;" d="M-49 0v45q82 4 143 39q63 37 117 160q68 166 471 1177h78q117 -295 287 -730t198 -509q27 -68 84 -100q59 -33 135 -37v-45h-645v45q70 4 138.5 24.5t68.5 55.5q0 25 -8 47l-127 324h-504q-53 -127 -82 -226q-23 -72 -22 -114q0 -49 78.5 -78t152.5 -33v-45h-563z M377 1651q0 49 34.5 85t82.5 36q53 0 87.5 -34t34.5 -79q0 -51 -35.5 -88t-86.5 -37q-47 0 -82 35t-35 82zM414 563h450l-227 572zM821 1651q0 49 35 85t84 36q51 0 86 -34t35 -79q0 -51 -35 -88t-86 -37q-49 0 -84 35t-35 82z" />
<glyph unicode="&#xc5;" d="M-49 0v45q82 4 143 39q63 37 117 160q68 166 471 1177h78q117 -295 287 -730t198 -509q27 -68 84 -100q59 -33 135 -37v-45h-645v45q70 4 138.5 24.5t68.5 55.5q0 25 -8 47l-127 324h-504q-53 -127 -82 -226q-23 -72 -22 -114q0 -49 78.5 -78t152.5 -33v-45h-563z M414 563h450l-227 572zM508 1679q0 88 62.5 144.5t152.5 56.5q92 0 153.5 -55.5t61.5 -145.5q0 -88 -60.5 -144t-154.5 -56q-96 0 -155.5 55t-59.5 145zM600 1679q0 -70 33 -111.5t90 -41.5t90 41.5t33 111.5q0 68 -33 111t-90 43t-90 -41t-33 -113z" />
<glyph unicode="&#xc6;" horiz-adv-x="1925" d="M-123 0v45q82 4 152 39q70 37 143 160q70 117 623 1085q-55 18 -170 25v45h1140v-318h-55q-18 74 -88 160t-131 94q-66 8 -170 8h-211v-589h147q53 0 91 12t49.5 21.5t32 30t39 80.5t24.5 108h55v-572h-55q-4 45 -24.5 111.5t-38.5 87.5q-59 63 -173 63h-147v-450 q0 -123 43 -155t201 -32h28q84 0 124 1t85 12.5t68 33.5q43 43 95 138.5t71 148.5h51l-27 -393h-1181v45q115 6 161 25q63 25 64 100v391h-465q-100 -172 -156 -291q-37 -74 -43 -114q-6 -35 34 -60.5t87 -37t90 -13.5v-45h-563zM467 625h426v696h-31z" />
<glyph unicode="&#xc7;" horiz-adv-x="1337" d="M76 682q0 317 205.5 530t515.5 213q82 0 172 -32.5t137 -77.5l61 104h84l9 -506h-50q-141 453 -477 453q-172 0 -291.5 -170t-119.5 -498q0 -272 143 -447t348 -175q174 0 277.5 80t169.5 227l53 -29q-170 -385 -559 -385h-19v-82q264 0 264 -155q0 -63 -34.5 -105.5 t-101 -61t-132 -24.5t-158.5 -6v53q168 0 213 17q66 25 66 90q0 35 -29.5 52t-60.5 20.5t-84 3.5v202q-272 23 -437 214.5t-165 494.5z" />
<glyph unicode="&#xc8;" horiz-adv-x="1363" d="M78 0v45q117 6 162 25q63 25 63 100v1047q0 76 -63 100q-76 33 -162 37v45h1128v-318h-55q-18 74 -88 160t-131 94q-66 8 -170 8h-242v-589h178q53 0 91 12t49.5 21.5t32 30t39 80.5t24.5 108h55v-572h-55q-4 45 -24.5 111.5t-39.5 87.5q-59 63 -172 63h-178v-450 q0 -123 43 -155t201 -32q231 0 291 21q29 10 45 26q43 43 95 138.5t71 148.5h51l-27 -393h-1212zM399 1810q0 31 23.5 54.5t58.5 23.5q74 0 125 -88q101 -168 199 -311l-29 -25q-94 76 -189 147.5t-114 86.5q-41 33 -57.5 55.5t-16.5 56.5z" />
<glyph unicode="&#xc9;" horiz-adv-x="1363" d="M78 0v45q117 6 162 25q63 25 63 100v1047q0 76 -63 100q-76 33 -162 37v45h1128v-318h-55q-18 74 -88 160t-131 94q-66 8 -170 8h-242v-589h178q53 0 91 12t49.5 21.5t32 30t39 80.5t24.5 108h55v-572h-55q-4 45 -24.5 111.5t-39.5 87.5q-59 63 -172 63h-178v-450 q0 -123 43 -155t201 -32q231 0 291 21q29 10 45 26q43 43 95 138.5t71 148.5h51l-27 -393h-1212zM567 1489q98 143 199 311q51 88 125 88q35 0 58.5 -23.5t23.5 -54.5q0 -35 -16.5 -57t-57.5 -55q-18 -14 -113.5 -86t-189.5 -148z" />
<glyph unicode="&#xca;" horiz-adv-x="1363" d="M78 0v45q117 6 162 25q63 25 63 100v1047q0 76 -63 100q-76 33 -162 37v45h1128v-318h-55q-18 74 -88 160t-131 94q-66 8 -170 8h-242v-589h178q53 0 91 12t49.5 21.5t32 30t39 80.5t24.5 108h55v-572h-55q-4 45 -24.5 111.5t-39.5 87.5q-59 63 -172 63h-178v-450 q0 -123 43 -155t201 -32q231 0 291 21q29 10 45 26q43 43 95 138.5t71 148.5h51l-27 -393h-1212zM375 1497q109 160 233 350q20 31 33.5 38t56.5 7t54.5 -6t29.5 -35q23 -33 101 -151.5t135 -202.5l-31 -24l-293 274l-288 -274z" />
<glyph unicode="&#xcb;" horiz-adv-x="1363" d="M78 0v45q117 6 162 25q63 25 63 100v1047q0 76 -63 100q-76 33 -162 37v45h1128v-318h-55q-18 74 -88 160t-131 94q-66 8 -170 8h-242v-589h178q53 0 91 12t49.5 21.5t32 30t39 80.5t24.5 108h55v-572h-55q-4 45 -24.5 111.5t-39.5 87.5q-59 63 -172 63h-178v-450 q0 -123 43 -155t201 -32q231 0 291 21q29 10 45 26q43 43 95 138.5t71 148.5h51l-27 -393h-1212zM350 1651q0 49 35 85t82 36q53 0 88 -34t35 -79q0 -51 -36 -88t-87 -37q-47 0 -82 35t-35 82zM795 1651q0 49 34.5 85t83.5 36q51 0 86 -34t35 -79q0 -51 -34.5 -88t-86.5 -37 q-49 0 -83.5 35t-34.5 82z" />
<glyph unicode="&#xcc;" horiz-adv-x="831" d="M94 0v45q113 6 150 21q63 25 63 98v1055q0 74 -63 98q-86 33 -150 37v45h643v-45q-84 -4 -149 -27q-63 -20 -64 -98v-1055q0 -72 64 -98q61 -27 149 -31v-45h-643zM113 1810q0 31 23.5 54.5t58.5 23.5q74 0 124 -88q101 -168 199 -311l-29 -25q-94 76 -189 147.5 t-114 86.5q-41 33 -57 55.5t-16 56.5z" />
<glyph unicode="&#xcd;" horiz-adv-x="831" d="M94 0v45q113 6 150 21q63 25 63 98v1055q0 74 -63 98q-86 33 -150 37v45h643v-45q-84 -4 -149 -27q-63 -20 -64 -98v-1055q0 -72 64 -98q61 -27 149 -31v-45h-643zM322 1489q98 143 198 311q51 88 125 88q35 0 58.5 -23.5t23.5 -54.5q0 -35 -16.5 -57t-57.5 -55 q-18 -14 -113.5 -86t-189.5 -148z" />
<glyph unicode="&#xce;" horiz-adv-x="831" d="M92 1497q109 160 234 350q20 31 33.5 38t56.5 7t54 -6t30 -35q23 -33 100.5 -151.5t134.5 -202.5l-30 -24l-293 274l-289 -274zM94 0v45q113 6 150 21q63 25 63 98v1055q0 74 -63 98q-86 33 -150 37v45h643v-45q-84 -4 -149 -27q-63 -20 -64 -98v-1055q0 -72 64 -98 q61 -27 149 -31v-45h-643z" />
<glyph unicode="&#xcf;" horiz-adv-x="831" d="M74 1651q0 49 34.5 85t81.5 36q53 0 88 -34t35 -79q0 -51 -35.5 -88t-87.5 -37q-47 0 -81.5 35t-34.5 82zM94 0v45q113 6 150 21q63 25 63 98v1055q0 74 -63 98q-86 33 -150 37v45h643v-45q-84 -4 -149 -27q-63 -20 -64 -98v-1055q0 -72 64 -98q61 -27 149 -31v-45h-643z M518 1651q0 49 35 85t84 36q51 0 86 -34t35 -79q0 -51 -35 -88t-86 -37q-49 0 -84 35t-35 82z" />
<glyph unicode="&#xd0;" horiz-adv-x="1595" d="M88 0v45q98 0 152 21q63 25 63 100v528h-205v68h205v455q0 78 -63 104q-70 29 -144 33v45h660q92 0 187 -19.5t201.5 -69.5t187.5 -127t134.5 -205t53.5 -288q0 -172 -70 -308t-185.5 -217t-256 -123t-293.5 -42h-627zM520 217q10 -80 60.5 -119t162.5 -39 q260 0 392.5 172t132.5 461q0 283 -157 466t-413 183q-88 0 -178 -4v-575h285v-68h-285v-477z" />
<glyph unicode="&#xd1;" horiz-adv-x="1609" d="M10 1354v45h422l856 -1077v694q0 231 -69 276q-29 18 -100.5 39t-108.5 23v45h610v-45q-31 -2 -98.5 -19.5t-89.5 -31.5q-68 -43 -68 -275v-1042h-76l-917 1155v-750q0 -223 69 -280q25 -20 101.5 -42t109.5 -24v-45h-614v45q29 2 101.5 22.5t88.5 32.5q68 47 68 281v721 q0 109 -66 162q-37 31 -107.5 59.5t-111.5 30.5zM438 1516q33 92 100.5 174t155.5 82q86 0 181.5 -55.5t138.5 -55.5q80 0 110.5 26.5t61.5 92.5q6 12 8 18l41 -14q-25 -88 -98.5 -172t-163.5 -84t-184.5 55t-145.5 55q-59 0 -89 -28.5t-77 -110.5z" />
<glyph unicode="&#xd2;" horiz-adv-x="1587" d="M78 684q0 336 198 535q209 213 519 213q301 0 520 -213q92 -92 143 -226t51 -284q0 -338 -213 -545q-213 -197 -510 -197q-285 0 -489 193q-219 207 -219 524zM326 694q0 -291 119.5 -477t349 -186t348.5 185t119 486q0 178 -44 322.5t-153 244t-270 99.5 q-219 0 -344 -178t-125 -496zM502 1810q0 31 23.5 54.5t58.5 23.5q74 0 125 -88q100 -168 198 -311l-28 -25q-94 76 -189.5 147.5t-114.5 86.5q-41 33 -57 55.5t-16 56.5z" />
<glyph unicode="&#xd3;" horiz-adv-x="1587" d="M78 684q0 336 198 535q209 213 519 213q301 0 520 -213q92 -92 143 -226t51 -284q0 -338 -213 -545q-213 -197 -510 -197q-285 0 -489 193q-219 207 -219 524zM326 694q0 -291 119.5 -477t349 -186t348.5 185t119 486q0 178 -44 322.5t-153 244t-270 99.5 q-219 0 -344 -178t-125 -496zM649 1489q98 143 199 311q51 88 125 88q35 0 58.5 -23.5t23.5 -54.5q0 -35 -16.5 -57t-57.5 -55q-18 -14 -113.5 -86t-189.5 -148z" />
<glyph unicode="&#xd4;" horiz-adv-x="1587" d="M78 684q0 336 198 535q209 213 519 213q301 0 520 -213q92 -92 143 -226t51 -284q0 -338 -213 -545q-213 -197 -510 -197q-285 0 -489 193q-219 207 -219 524zM326 694q0 -291 119.5 -477t349 -186t348.5 185t119 486q0 178 -44 322.5t-153 244t-270 99.5 q-219 0 -344 -178t-125 -496zM463 1497q109 160 233 350q20 31 33.5 38t56.5 7t54.5 -6t29.5 -35q23 -33 101 -151.5t135 -202.5l-31 -24l-293 274l-288 -274z" />
<glyph unicode="&#xd5;" horiz-adv-x="1587" d="M78 684q0 336 198 535q209 213 519 213q301 0 520 -213q92 -92 143 -226t51 -284q0 -338 -213 -545q-213 -197 -510 -197q-285 0 -489 193q-219 207 -219 524zM326 694q0 -291 119.5 -477t349 -186t348.5 185t119 486q0 178 -44 322.5t-153 244t-270 99.5 q-219 0 -344 -178t-125 -496zM397 1526q33 92 100.5 174t155.5 82q86 0 181.5 -55.5t138.5 -55.5q80 0 110.5 26.5t61.5 92.5q6 12 8 18l41 -14q-25 -88 -98.5 -172t-163.5 -84t-184.5 55.5t-145.5 55.5q-59 0 -89 -29t-77 -111z" />
<glyph unicode="&#xd6;" horiz-adv-x="1587" d="M78 684q0 336 198 535q209 213 519 213q301 0 520 -213q92 -92 143 -226t51 -284q0 -338 -213 -545q-213 -197 -510 -197q-285 0 -489 193q-219 207 -219 524zM326 694q0 -291 119.5 -477t349 -186t348.5 185t119 486q0 178 -44 322.5t-153 244t-270 99.5 q-219 0 -344 -178t-125 -496zM444 1651q0 49 35 85t82 36q53 0 88 -34t35 -79q0 -51 -36 -88t-87 -37q-47 0 -82 35t-35 82zM889 1651q0 49 34.5 85t84.5 36q51 0 85.5 -34t34.5 -79q0 -51 -34.5 -88t-85.5 -37q-49 0 -84 35t-35 82z" />
<glyph unicode="&#xd8;" horiz-adv-x="1587" d="M78 684q0 336 198 535q209 213 519 213q262 0 458 -160l185 209l53 -41l-188 -211q90 -78 148 -222t58 -298q0 -338 -213 -545q-213 -197 -510 -197q-258 0 -454 162l-185 -209l-51 39l187 213q-205 205 -205 512zM326 694q0 -225 73 -391l756 858q-125 207 -360 207 q-219 0 -344 -178t-125 -496zM430 242q125 -211 365 -211q229 0 348 185t119 486q0 227 -74 396z" />
<glyph unicode="&#xd9;" horiz-adv-x="1619" d="M70 1354v45h637v-45q-82 -4 -148 -27q-63 -20 -63 -100v-817q0 -63 14 -118.5t51 -113t116 -90.5t191 -33q115 0 199 36t125 94.5t59.5 114.5t18.5 114v606q0 229 -70 274q-35 23 -101.5 40.5t-107.5 19.5v45h613v-45q-35 -2 -97.5 -16.5t-91.5 -32.5q-68 -43 -67 -273 v-626q0 -96 -36 -173t-91.5 -125.5t-128 -81t-140 -46t-133.5 -13.5q-256 0 -399.5 116t-143.5 286v848q0 70 -63 102q-59 29 -143 35zM524 1810q0 31 23.5 54.5t58.5 23.5q74 0 125 -88q101 -168 199 -311l-29 -25q-94 76 -189.5 147.5t-113.5 86.5q-41 33 -57.5 55.5 t-16.5 56.5z" />
<glyph unicode="&#xda;" horiz-adv-x="1619" d="M70 1354v45h637v-45q-82 -4 -148 -27q-63 -20 -63 -100v-817q0 -63 14 -118.5t51 -113t116 -90.5t191 -33q115 0 199 36t125 94.5t59.5 114.5t18.5 114v606q0 229 -70 274q-35 23 -101.5 40.5t-107.5 19.5v45h613v-45q-35 -2 -97.5 -16.5t-91.5 -32.5q-68 -43 -67 -273 v-626q0 -96 -36 -173t-91.5 -125.5t-128 -81t-140 -46t-133.5 -13.5q-256 0 -399.5 116t-143.5 286v848q0 70 -63 102q-59 29 -143 35zM731 1489q98 143 199 311q51 88 125 88q35 0 58.5 -23.5t23.5 -54.5q0 -35 -16.5 -57t-57.5 -55q-18 -14 -113.5 -86t-189.5 -148z" />
<glyph unicode="&#xdb;" horiz-adv-x="1619" d="M70 1354v45h637v-45q-82 -4 -148 -27q-63 -20 -63 -100v-817q0 -63 14 -118.5t51 -113t116 -90.5t191 -33q115 0 199 36t125 94.5t59.5 114.5t18.5 114v606q0 229 -70 274q-35 23 -101.5 40.5t-107.5 19.5v45h613v-45q-35 -2 -97.5 -16.5t-91.5 -32.5q-68 -43 -67 -273 v-626q0 -96 -36 -173t-91.5 -125.5t-128 -81t-140 -46t-133.5 -13.5q-256 0 -399.5 116t-143.5 286v848q0 70 -63 102q-59 29 -143 35zM520 1497q109 160 234 350q20 31 33.5 38t56.5 7t54 -6t30 -35q23 -33 100.5 -151.5t134.5 -202.5l-30 -24l-293 274l-289 -274z" />
<glyph unicode="&#xdc;" horiz-adv-x="1619" d="M70 1354v45h637v-45q-82 -4 -148 -27q-63 -20 -63 -100v-817q0 -63 14 -118.5t51 -113t116 -90.5t191 -33q115 0 199 36t125 94.5t59.5 114.5t18.5 114v606q0 229 -70 274q-35 23 -101.5 40.5t-107.5 19.5v45h613v-45q-35 -2 -97.5 -16.5t-91.5 -32.5q-68 -43 -67 -273 v-626q0 -96 -36 -173t-91.5 -125.5t-128 -81t-140 -46t-133.5 -13.5q-256 0 -399.5 116t-143.5 286v848q0 70 -63 102q-59 29 -143 35zM500 1651q0 49 34.5 85t81.5 36q53 0 88 -34t35 -79q0 -51 -35.5 -88t-87.5 -37q-47 0 -81.5 35t-34.5 82zM944 1651q0 49 35 85t84 36 q51 0 86 -34t35 -79q0 -51 -35 -88t-86 -37q-49 0 -84 35t-35 82z" />
<glyph unicode="&#xdd;" horiz-adv-x="1280" d="M-66 1354v45h660v-45q-207 -12 -207 -72q0 -39 318 -602q336 526 335 575q0 84 -221 99v45h533v-45q-63 -6 -119 -41q-57 -33 -115 -105q-53 -66 -111.5 -156.5t-98.5 -160.5t-115 -207q-61 -115 -62 -229v-273q0 -76 64 -102q18 -8 79.5 -20.5t88.5 -14.5v-45h-680v45 q121 6 168 25q63 25 63 102v356q0 47 -53 154q-150 293 -271 498q-55 98 -124 139q-55 31 -132 35zM639 1489q98 143 199 311q51 88 125 88q35 0 58 -23.5t23 -54.5q0 -35 -16 -57t-57 -55q-18 -14 -113.5 -86t-189.5 -148z" />
<glyph unicode="&#xde;" horiz-adv-x="1271" d="M92 0v45q104 6 148 23q63 25 63 102v1059q0 78 -63 102q-43 16 -148 23v45h653v-45q-115 -4 -161 -23q-63 -25 -64 -102v-133h250q188 0 313 -89t125 -243q0 -199 -157.5 -312.5t-370.5 -113.5h-160v-168q0 -78 64 -102q47 -18 161 -23v-45h-653zM520 399h101 q84 0 147 23.5t98 58.5t55.5 81t26.5 81t6 70q0 137 -67.5 231t-227.5 94h-139v-639z" />
<glyph unicode="&#xdf;" horiz-adv-x="1202" d="M41 836v86h172v63q0 272 139 420q117 125 301 125q131 0 228.5 -73t97.5 -193q0 -94 -36 -162t-78 -97.5t-77.5 -65.5t-35.5 -75q0 -35 9 -59.5t53 -73.5t130 -119q119 -96 162 -158.5t43 -168.5q0 -125 -94 -219.5t-224 -94.5q-143 0 -215.5 60.5t-72.5 150.5 q0 55 31.5 88t82.5 33q41 0 67 -26.5t26 -63.5q0 -25 -17.5 -55.5t-17.5 -48.5q0 -35 30.5 -63t98.5 -28q76 0 122 48.5t46 128.5q0 70 -38 123t-163 151q-94 74 -145.5 139.5t-51.5 141.5q0 55 34 101t74 79t73.5 105.5t33.5 174.5q0 133 -56 203t-146 70 q-106 0 -161.5 -103.5t-64.5 -332.5q0 -14 -1 -50t-1 -55v-942h-340v41q59 4 99 14q55 18 55 92v689h-172z" />
<glyph unicode="&#xe0;" horiz-adv-x="1003" d="M76 193q0 115 53 172t147 92q20 8 156.5 54t188.5 75v114q0 25 -4.5 50.5t-19.5 65.5t-54 65.5t-99 25.5q-16 0 -30.5 -2t-25.5 -8t-19.5 -10t-17.5 -13.5t-12 -12.5t-11 -13l-9 -10q0 -14 9.5 -55.5t9.5 -65.5q0 -35 -33 -61.5t-86 -26.5q-47 0 -69.5 30.5t-22.5 75.5 q0 88 103.5 152.5t226.5 64.5q86 0 142 -9t108.5 -39t77 -93t24.5 -162q0 -104 -5 -271t-5 -188q0 -31 25.5 -67.5t70.5 -36.5q25 0 40 12.5t23.5 39t10.5 47t6 59.5h45q-16 -264 -217 -264q-133 0 -180 137h-7q-121 -141 -303 -142q-106 0 -171.5 59.5t-65.5 158.5z M209 1419q0 31 23.5 54.5t58.5 23.5q74 0 125 -88q100 -168 198 -311l-28 -25q-94 76 -189.5 147.5t-113.5 86.5q-41 33 -57.5 55t-16.5 57zM274 223q0 -164 140 -164q72 0 113.5 27t86.5 82l9 358q-182 -57 -265.5 -117.5t-83.5 -185.5z" />
<glyph unicode="&#xe1;" horiz-adv-x="1003" d="M76 193q0 115 53 172t147 92q20 8 156.5 54t188.5 75v114q0 25 -4.5 50.5t-19.5 65.5t-54 65.5t-99 25.5q-16 0 -30.5 -2t-25.5 -8t-19.5 -10t-17.5 -13.5t-12 -12.5t-11 -13l-9 -10q0 -14 9.5 -55.5t9.5 -65.5q0 -35 -33 -61.5t-86 -26.5q-47 0 -69.5 30.5t-22.5 75.5 q0 88 103.5 152.5t226.5 64.5q86 0 142 -9t108.5 -39t77 -93t24.5 -162q0 -104 -5 -271t-5 -188q0 -31 25.5 -67.5t70.5 -36.5q25 0 40 12.5t23.5 39t10.5 47t6 59.5h45q-16 -264 -217 -264q-133 0 -180 137h-7q-121 -141 -303 -142q-106 0 -171.5 59.5t-65.5 158.5z M274 223q0 -164 140 -164q72 0 113.5 27t86.5 82l9 358q-182 -57 -265.5 -117.5t-83.5 -185.5zM332 1098q98 143 198 311q51 88 125 88q35 0 58.5 -23.5t23.5 -54.5q0 -35 -16 -57.5t-57 -54.5q-18 -14 -113.5 -86t-190.5 -148z" />
<glyph unicode="&#xe2;" horiz-adv-x="1003" d="M76 193q0 115 53 172t147 92q20 8 156.5 54t188.5 75v114q0 25 -4.5 50.5t-19.5 65.5t-54 65.5t-99 25.5q-16 0 -30.5 -2t-25.5 -8t-19.5 -10t-17.5 -13.5t-12 -12.5t-11 -13l-9 -10q0 -14 9.5 -55.5t9.5 -65.5q0 -35 -33 -61.5t-86 -26.5q-47 0 -69.5 30.5t-22.5 75.5 q0 88 103.5 152.5t226.5 64.5q86 0 142 -9t108.5 -39t77 -93t24.5 -162q0 -104 -5 -271t-5 -188q0 -31 25.5 -67.5t70.5 -36.5q25 0 40 12.5t23.5 39t10.5 47t6 59.5h45q-16 -264 -217 -264q-133 0 -180 137h-7q-121 -141 -303 -142q-106 0 -171.5 59.5t-65.5 158.5z M147 1106q109 160 234 350q20 31 33.5 38t56.5 7t54.5 -6t29.5 -35q23 -33 101 -151.5t135 -202.5l-31 -25l-293 275l-289 -275zM274 223q0 -164 140 -164q72 0 113.5 27t86.5 82l9 358q-182 -57 -265.5 -117.5t-83.5 -185.5z" />
<glyph unicode="&#xe3;" horiz-adv-x="1003" d="M76 193q0 115 53 172t147 92q20 8 156.5 54t188.5 75v114q0 25 -4.5 50.5t-19.5 65.5t-54 65.5t-99 25.5q-16 0 -30.5 -2t-25.5 -8t-19.5 -10t-17.5 -13.5t-12 -12.5t-11 -13l-9 -10q0 -14 9.5 -55.5t9.5 -65.5q0 -35 -33 -61.5t-86 -26.5q-47 0 -69.5 30.5t-22.5 75.5 q0 88 103.5 152.5t226.5 64.5q86 0 142 -9t108.5 -39t77 -93t24.5 -162q0 -104 -5 -271t-5 -188q0 -31 25.5 -67.5t70.5 -36.5q25 0 40 12.5t23.5 39t10.5 47t6 59.5h45q-16 -264 -217 -264q-133 0 -180 137h-7q-121 -141 -303 -142q-106 0 -171.5 59.5t-65.5 158.5z M90 1145q33 92 100.5 174t155.5 82q86 0 181.5 -55.5t138.5 -55.5q80 0 110.5 26.5t61.5 92.5q6 12 8 18l41 -14q-25 -88 -98.5 -172t-163.5 -84t-184.5 55.5t-145.5 55.5q-59 0 -89 -29t-77 -111zM274 223q0 -164 140 -164q72 0 113.5 27t86.5 82l9 358 q-182 -57 -265.5 -117.5t-83.5 -185.5z" />
<glyph unicode="&#xe4;" horiz-adv-x="1003" d="M76 193q0 115 53 172t147 92q20 8 156.5 54t188.5 75v114q0 25 -4.5 50.5t-19.5 65.5t-54 65.5t-99 25.5q-16 0 -30.5 -2t-25.5 -8t-19.5 -10t-17.5 -13.5t-12 -12.5t-11 -13l-9 -10q0 -14 9.5 -55.5t9.5 -65.5q0 -35 -33 -61.5t-86 -26.5q-47 0 -69.5 30.5t-22.5 75.5 q0 88 103.5 152.5t226.5 64.5q86 0 142 -9t108.5 -39t77 -93t24.5 -162q0 -104 -5 -271t-5 -188q0 -31 25.5 -67.5t70.5 -36.5q25 0 40 12.5t23.5 39t10.5 47t6 59.5h45q-16 -264 -217 -264q-133 0 -180 137h-7q-121 -141 -303 -142q-106 0 -171.5 59.5t-65.5 158.5z M135 1321q0 49 35 85t82 36q53 0 88 -34t35 -79q0 -51 -36 -88t-87 -37q-47 0 -82 35t-35 82zM274 223q0 -164 140 -164q72 0 113.5 27t86.5 82l9 358q-182 -57 -265.5 -117.5t-83.5 -185.5zM580 1321q0 49 34.5 85t83.5 36q51 0 86 -34t35 -79q0 -51 -34.5 -88t-86.5 -37 q-49 0 -83.5 35t-34.5 82z" />
<glyph unicode="&#xe5;" horiz-adv-x="1003" d="M76 193q0 115 53 172t147 92q20 8 156.5 54t188.5 75v114q0 25 -4.5 50.5t-19.5 65.5t-54 65.5t-99 25.5q-16 0 -30.5 -2t-25.5 -8t-19.5 -10t-17.5 -13.5t-12 -12.5t-11 -13l-9 -10q0 -14 9.5 -55.5t9.5 -65.5q0 -35 -33 -61.5t-86 -26.5q-47 0 -69.5 30.5t-22.5 75.5 q0 88 103.5 152.5t226.5 64.5q86 0 142 -9t108.5 -39t77 -93t24.5 -162q0 -104 -5 -271t-5 -188q0 -31 25.5 -67.5t70.5 -36.5q25 0 40 12.5t23.5 39t10.5 47t6 59.5h45q-16 -264 -217 -264q-133 0 -180 137h-7q-121 -141 -303 -142q-106 0 -171.5 59.5t-65.5 158.5z M252 1288q0 88 62.5 144.5t152.5 56.5q92 0 153.5 -55.5t61.5 -145.5q0 -88 -60.5 -144.5t-154.5 -56.5q-96 0 -155.5 55.5t-59.5 145.5zM274 223q0 -164 140 -164q72 0 113.5 27t86.5 82l9 358q-182 -57 -265.5 -117.5t-83.5 -185.5zM344 1288q0 -70 33 -111.5t90 -41.5 t90 41.5t33 111.5q0 68 -33 111t-90 43t-90 -41t-33 -113z" />
<glyph unicode="&#xe6;" horiz-adv-x="1474" d="M76 193q0 115 54 172t153 92q41 14 117.5 39.5t133 46t95.5 43.5v114q0 25 -5.5 50.5t-19.5 65.5t-54 65.5t-99 25.5q-80 0 -134 -65q0 -14 9.5 -55.5t9.5 -65.5q0 -35 -33 -61.5t-86 -26.5q-47 0 -69.5 30.5t-22.5 75.5q0 88 107.5 150.5t230.5 62.5q225 0 309 -108 q123 109 268 108q197 0 289 -113.5t92 -285.5v-14h-608v-33q0 -205 75 -322.5t226 -117.5q115 0 167 36.5t118 141.5l37 -25q-55 -113 -154.5 -178.5t-224.5 -65.5q-242 0 -363 193h-6q-139 -193 -369 -193q-109 0 -176 59.5t-67 158.5zM274 223q0 -166 146 -166 q74 0 119 30t92 89v350q-92 -29 -144.5 -50t-107.5 -56t-80 -83t-25 -114zM813 584l401 4q0 317 -176 317q-188 0 -225 -321z" />
<glyph unicode="&#xe7;" horiz-adv-x="890" d="M66 467q0 197 125.5 341t328.5 144q152 0 235 -68.5t83 -168.5q0 -53 -28 -84t-79 -31q-41 0 -78 24.5t-37 77.5q0 49 13.5 81t13.5 46q-8 43 -36.5 58.5t-86.5 15.5q-102 0 -175 -101.5t-73 -316.5q0 -184 77 -301.5t210 -117.5q104 0 171 44t120 138l39 -29 q-59 -106 -160.5 -175t-218.5 -69q-33 0 -49 2v-90q264 0 264 -155q0 -63 -35 -105.5t-101.5 -61t-132 -24.5t-157.5 -6v53q168 0 213 17q66 25 66 90q0 35 -30 52t-60.5 20.5t-84.5 3.5v215q-164 33 -250.5 161.5t-86.5 319.5z" />
<glyph unicode="&#xe8;" horiz-adv-x="933" d="M66 471q0 195 117.5 338t312.5 143q197 0 290 -110.5t93 -282.5v-18h-611v-23q0 -211 74 -331.5t231 -120.5q113 0 169.5 39.5t119.5 142.5l37 -25q-55 -113 -155.5 -180.5t-225.5 -67.5q-221 0 -336.5 140.5t-115.5 355.5zM231 1419q0 31 24 54.5t58 23.5q74 0 125 -88 q101 -168 199 -311l-29 -25q-94 76 -189 147.5t-114 86.5q-41 33 -57.5 55t-16.5 57zM268 586l412 4q0 315 -186 315q-96 0 -159 -88t-67 -231z" />
<glyph unicode="&#xe9;" horiz-adv-x="933" d="M66 471q0 195 117.5 338t312.5 143q197 0 290 -110.5t93 -282.5v-18h-611v-23q0 -211 74 -331.5t231 -120.5q113 0 169.5 39.5t119.5 142.5l37 -25q-55 -113 -155.5 -180.5t-225.5 -67.5q-221 0 -336.5 140.5t-115.5 355.5zM268 586l412 4q0 315 -186 315q-96 0 -159 -88 t-67 -231zM385 1098q98 143 199 311q51 88 125 88q35 0 58.5 -23.5t23.5 -54.5q0 -35 -16.5 -57.5t-57.5 -54.5q-18 -14 -113.5 -86t-189.5 -148z" />
<glyph unicode="&#xea;" horiz-adv-x="933" d="M66 471q0 195 117.5 338t312.5 143q197 0 290 -110.5t93 -282.5v-18h-611v-23q0 -211 74 -331.5t231 -120.5q113 0 169.5 39.5t119.5 142.5l37 -25q-55 -113 -155.5 -180.5t-225.5 -67.5q-221 0 -336.5 140.5t-115.5 355.5zM176 1106q109 160 234 350q20 31 33.5 38 t56.5 7t54 -6t30 -35q23 -33 100.5 -151.5t134.5 -202.5l-31 -25l-292 275l-289 -275zM268 586l412 4q0 315 -186 315q-96 0 -159 -88t-67 -231z" />
<glyph unicode="&#xeb;" horiz-adv-x="933" d="M66 471q0 195 117.5 338t312.5 143q197 0 290 -110.5t93 -282.5v-18h-611v-23q0 -211 74 -331.5t231 -120.5q113 0 169.5 39.5t119.5 142.5l37 -25q-55 -113 -155.5 -180.5t-225.5 -67.5q-221 0 -336.5 140.5t-115.5 355.5zM166 1321q0 49 35 85t82 36q53 0 88 -34 t35 -79q0 -51 -36 -88t-87 -37q-47 0 -82 35t-35 82zM268 586l412 4q0 315 -186 315q-96 0 -159 -88t-67 -231zM610 1321q0 49 35 85t84 36q51 0 86 -34t35 -79q0 -51 -35 -88t-86 -37q-49 0 -84 35t-35 82z" />
<glyph unicode="&#xec;" horiz-adv-x="585" d="M23 1419q0 31 23.5 54.5t57.5 23.5q74 0 125 -88q101 -168 199 -311l-29 -25q-94 76 -189 147.5t-114 86.5q-41 33 -57 55t-16 57zM37 877v38l348 23l14 -14v-764q0 -70 56 -94q51 -23 90 -25v-41h-477v41q49 2 90 14q55 18 55 92v588q-6 70 -55 103q-53 35 -121 39z" />
<glyph unicode="&#xed;" horiz-adv-x="585" d="M37 877v38l348 23l14 -14v-764q0 -70 56 -94q51 -23 90 -25v-41h-477v41q49 2 90 14q55 18 55 92v588q-6 70 -55 103q-53 35 -121 39zM102 1098q98 143 199 311q51 88 125 88q35 0 58.5 -23.5t23.5 -54.5q0 -35 -16.5 -57.5t-57.5 -54.5q-18 -14 -113.5 -86t-189.5 -148z " />
<glyph unicode="&#xee;" horiz-adv-x="585" d="M-14 1106q59 96 122.5 216t71.5 134q14 25 19.5 31t18.5 10t44 4h21.5t16.5 -2t10 -2t8.5 -6t6.5 -7t6 -11.5t7 -12.5q14 -25 77 -141.5t120 -212.5l-31 -25l-246 285l-242 -285zM37 877v38l348 23l14 -14v-764q0 -70 56 -94q51 -23 90 -25v-41h-477v41q49 2 90 14 q55 18 55 92v588q-6 70 -55 103q-53 35 -121 39z" />
<glyph unicode="&#xef;" horiz-adv-x="585" d="M-37 1321q0 49 34 85t81 36q53 0 87 -34t34 -79q0 -51 -35 -88t-86 -37q-47 0 -81 35t-34 82zM37 877v38l348 23l14 -14v-764q0 -70 56 -94q51 -23 90 -25v-41h-477v41q49 2 90 14q55 18 55 92v588q-6 70 -55 103q-53 35 -121 39zM346 1321q0 49 34 85t83 36q51 0 85 -34 t34 -79q0 -51 -34 -87t-85 -36q-49 0 -83 34t-34 81z" />
<glyph unicode="&#xf0;" horiz-adv-x="1083" d="M66 471q0 215 126.5 348t327.5 133q88 0 161 -39t110 -96l8 2q-14 129 -60.5 261t-113.5 220l-236 -141l-31 49l230 140q-70 84 -168 149l26 37q135 -68 216 -143l198 120l33 -53l-182 -108q301 -277 301 -758q0 -281 -127 -451t-357 -170q-188 0 -325 135.5t-137 364.5z M272 481q0 -217 67 -340t200 -123q92 0 152.5 71t85 173.5t24.5 231.5q0 174 -67.5 291.5t-192.5 117.5q-143 0 -206 -122t-63 -300z" />
<glyph unicode="&#xf1;" horiz-adv-x="1196" d="M55 877v38l328 23l14 -14v-140h4q2 2 25 24.5t29 28t27.5 25t32.5 25.5t32.5 20.5t39 19.5l42 12t50.5 10t54 3q139 0 209 -86t70 -237v-473q0 -68 53 -93q47 -20 90 -22v-41h-483v41q57 4 96 14q55 18 55 92v494q0 100 -50 159.5t-120 59.5q-98 0 -164.5 -47t-91.5 -96 v-559q0 -68 56 -92q47 -23 96 -25v-41h-483v41q49 2 90 14q55 18 55 92v588q-8 76 -55 109q-45 29 -101 33zM223 1145q33 92 100.5 174t155.5 82q86 0 181.5 -55.5t138.5 -55.5q80 0 110.5 26.5t61.5 92.5q6 12 8 18l41 -14q-25 -88 -98.5 -172t-163.5 -84t-184.5 55.5 t-145.5 55.5q-59 0 -89 -29t-77 -111z" />
<glyph unicode="&#xf2;" horiz-adv-x="1071" d="M63 459q0 219 131.5 356t346.5 137q211 0 339 -135t128 -344q0 -213 -129 -357.5t-353 -144.5q-193 0 -328 134.5t-135 353.5zM270 475q0 -199 66.5 -328t202.5 -129q129 0 195.5 128t66.5 325q0 184 -62.5 309t-199.5 125q-76 0 -131.5 -39t-84 -104.5t-41 -136 t-12.5 -150.5zM289 1419q0 31 23.5 54.5t58.5 23.5q74 0 125 -88q100 -168 198 -311l-28 -25q-94 76 -189.5 147.5t-114.5 86.5q-41 33 -57 55t-16 57z" />
<glyph unicode="&#xf3;" horiz-adv-x="1071" d="M63 459q0 219 131.5 356t346.5 137q211 0 339 -135t128 -344q0 -213 -129 -357.5t-353 -144.5q-193 0 -328 134.5t-135 353.5zM270 475q0 -199 66.5 -328t202.5 -129q129 0 195.5 128t66.5 325q0 184 -62.5 309t-199.5 125q-76 0 -131.5 -39t-84 -104.5t-41 -136 t-12.5 -150.5zM358 1098q98 143 199 311q51 88 125 88q35 0 58.5 -23.5t23.5 -54.5q0 -35 -16.5 -57.5t-57.5 -54.5q-18 -14 -113.5 -86t-189.5 -148z" />
<glyph unicode="&#xf4;" horiz-adv-x="1071" d="M63 459q0 219 131.5 356t346.5 137q211 0 339 -135t128 -344q0 -213 -129 -357.5t-353 -144.5q-193 0 -328 134.5t-135 353.5zM217 1106q109 160 234 350q20 31 33.5 38t56.5 7t54 -6t30 -35q23 -33 100.5 -151.5t134.5 -202.5l-31 -25l-292 275l-289 -275zM270 475 q0 -199 66.5 -328t202.5 -129q129 0 195.5 128t66.5 325q0 184 -62.5 309t-199.5 125q-76 0 -131.5 -39t-84 -104.5t-41 -136t-12.5 -150.5z" />
<glyph unicode="&#xf5;" horiz-adv-x="1071" d="M63 459q0 219 131.5 356t346.5 137q211 0 339 -135t128 -344q0 -213 -129 -357.5t-353 -144.5q-193 0 -328 134.5t-135 353.5zM141 1145q33 92 100.5 174t155.5 82q86 0 181.5 -55.5t138.5 -55.5q80 0 110.5 26.5t61.5 92.5q6 12 8 18l41 -14q-25 -88 -98.5 -172 t-163.5 -84t-184.5 55.5t-145.5 55.5q-59 0 -89 -29t-77 -111zM270 475q0 -199 66.5 -328t202.5 -129q129 0 195.5 128t66.5 325q0 184 -62.5 309t-199.5 125q-76 0 -131.5 -39t-84 -104.5t-41 -136t-12.5 -150.5z" />
<glyph unicode="&#xf6;" horiz-adv-x="1071" d="M63 459q0 219 131.5 356t346.5 137q211 0 339 -135t128 -344q0 -213 -129 -357.5t-353 -144.5q-193 0 -328 134.5t-135 353.5zM197 1321q0 49 34.5 85t81.5 36q53 0 88 -34t35 -79q0 -51 -35.5 -88t-87.5 -37q-47 0 -81.5 35t-34.5 82zM270 475q0 -199 66.5 -328 t202.5 -129q129 0 195.5 128t66.5 325q0 184 -62.5 309t-199.5 125q-76 0 -131.5 -39t-84 -104.5t-41 -136t-12.5 -150.5zM641 1321q0 49 35 85t84 36q51 0 86 -34t35 -79q0 -51 -35 -88t-86 -37q-49 0 -84 35t-35 82z" />
<glyph unicode="&#xf8;" horiz-adv-x="1071" d="M63 459q0 219 131.5 356t346.5 137q168 0 282 -86l127 150l49 -35l-129 -154q138 -137 138 -354q0 -213 -129 -357.5t-353 -144.5q-166 0 -288 101l-119 -142l-47 33l123 148q-131 137 -132 348zM270 475q0 -133 31 -237l442 530q-66 137 -204 137q-76 0 -131.5 -39 t-84 -104.5t-41 -136t-12.5 -150.5zM324 174q68 -156 215 -156q129 0 195.5 128t66.5 325q0 137 -31 236z" />
<glyph unicode="&#xf9;" horiz-adv-x="1161" d="M29 874v39l329 25l15 -14v-652q0 -102 46 -158.5t116 -56.5q162 0 247 140v548q-6 70 -53 103q-35 23 -133 26v39l358 25l15 -14v-742q6 -66 53 -98q35 -23 98 -27v-39l-321 -22l-15 14v125h-6q-57 -57 -83.5 -80.5t-94.5 -51.5t-149 -28q-137 0 -202 90.5t-65 243.5v430 q-6 70 -53 103q-45 29 -102 32zM305 1419q0 31 23.5 54.5t58.5 23.5q74 0 125 -88q101 -168 199 -311l-29 -25q-94 76 -189.5 147.5t-113.5 86.5q-41 33 -57.5 55t-16.5 57z" />
<glyph unicode="&#xfa;" horiz-adv-x="1161" d="M29 874v39l329 25l15 -14v-652q0 -102 46 -158.5t116 -56.5q162 0 247 140v548q-6 70 -53 103q-35 23 -133 26v39l358 25l15 -14v-742q6 -66 53 -98q35 -23 98 -27v-39l-321 -22l-15 14v125h-6q-57 -57 -83.5 -80.5t-94.5 -51.5t-149 -28q-137 0 -202 90.5t-65 243.5v430 q-6 70 -53 103q-45 29 -102 32zM434 1098q98 143 199 311q51 88 125 88q35 0 58.5 -23.5t23.5 -54.5q0 -35 -16.5 -57.5t-57.5 -54.5q-18 -14 -113.5 -86t-189.5 -148z" />
<glyph unicode="&#xfb;" horiz-adv-x="1161" d="M29 874v39l329 25l15 -14v-652q0 -102 46 -158.5t116 -56.5q162 0 247 140v548q-6 70 -53 103q-35 23 -133 26v39l358 25l15 -14v-742q6 -66 53 -98q35 -23 98 -27v-39l-321 -22l-15 14v125h-6q-57 -57 -83.5 -80.5t-94.5 -51.5t-149 -28q-137 0 -202 90.5t-65 243.5v430 q-6 70 -53 103q-45 29 -102 32zM223 1106q109 160 234 350q20 31 33.5 38t56.5 7t54 -6t30 -35q23 -33 100.5 -151.5t134.5 -202.5l-30 -25l-293 275l-289 -275z" />
<glyph unicode="&#xfc;" horiz-adv-x="1161" d="M29 874v39l329 25l15 -14v-652q0 -102 46 -158.5t116 -56.5q162 0 247 140v548q-6 70 -53 103q-35 23 -133 26v39l358 25l15 -14v-742q6 -66 53 -98q35 -23 98 -27v-39l-321 -22l-15 14v125h-6q-57 -57 -83.5 -80.5t-94.5 -51.5t-149 -28q-137 0 -202 90.5t-65 243.5v430 q-6 70 -53 103q-45 29 -102 32zM211 1321q0 49 35 85t82 36q53 0 88 -34t35 -79q0 -51 -36 -88t-87 -37q-47 0 -82 35t-35 82zM655 1321q0 49 35 85t84 36q51 0 86 -34t35 -79q0 -51 -35 -88t-86 -37q-49 0 -84 35t-35 82z" />
<glyph unicode="&#xfd;" horiz-adv-x="946" d="M-27 883v43h449v-47q-111 -4 -111 -43q0 -8 15 -43q20 -53 103 -257t124 -307h4q145 348 213 525q12 33 12 57q0 27 -54 48.5t-93 25.5v41h354v-39q-33 -6 -82 -40t-69 -75q-20 -47 -57.5 -136t-88.5 -211t-80 -192l-106 -264q-68 -152 -118 -241.5t-96 -129.5t-78 -50.5 t-87 -10.5q-53 0 -102.5 35t-49.5 104q0 43 33 81t84 38q43 0 75 -23.5t32 -78.5v-72q53 12 116.5 102.5t102.5 174.5l37 82q-51 127 -330 802q-37 84 -152 101zM436 1098q98 143 199 311q51 88 125 88q35 0 58.5 -23.5t23.5 -54.5q0 -35 -16.5 -57.5t-57.5 -54.5 q-18 -14 -113.5 -86t-189.5 -148z" />
<glyph unicode="&#xfe;" horiz-adv-x="1128" d="M-23 1466v39l363 23l14 -15v-684l6 -2q115 125 277 125q180 0 303 -136t123 -357q0 -207 -139.5 -347.5t-325.5 -140.5q-150 0 -236 64h-8v-330q0 -74 58 -96q66 -27 141 -31v-41h-551v41q59 4 113 19q53 16 53 96v1622q0 82 -55 117q-45 31 -136 34zM354 201 q25 -70 80 -128.5t148 -58.5q121 0 196.5 119t75.5 324q0 109 -27.5 198.5t-94 151t-165.5 61.5q-131 0 -213 -96v-571z" />
<glyph unicode="&#xff;" horiz-adv-x="946" d="M-27 883v43h449v-47q-111 -4 -111 -43q0 -8 15 -43q20 -53 103 -257t124 -307h4q145 348 213 525q12 33 12 57q0 27 -54 48.5t-93 25.5v41h354v-39q-33 -6 -82 -40t-69 -75q-20 -47 -57.5 -136t-88.5 -211t-80 -192l-106 -264q-68 -152 -118 -241.5t-96 -129.5t-78 -50.5 t-87 -10.5q-53 0 -102.5 35t-49.5 104q0 43 33 81t84 38q43 0 75 -23.5t32 -78.5v-72q53 12 116.5 102.5t102.5 174.5l37 82q-51 127 -330 802q-37 84 -152 101zM164 1321q0 49 34.5 85t82.5 36q53 0 87.5 -34t34.5 -79q0 -51 -35.5 -88t-86.5 -37q-47 0 -82 35t-35 82z M608 1321q0 49 35 85t84 36q51 0 86 -34t35 -79q0 -51 -35 -88t-86 -37q-49 0 -84 35t-35 82z" />
<glyph unicode="&#x152;" horiz-adv-x="2095" d="M78 684q0 315 182 514q92 100 218 152.5t259 52.5q90 0 215 -2t187 -2h798v-318h-55q-18 74 -88 160t-131 94q-66 8 -170 8h-211v-589h148q53 0 91 12t49 21.5t31.5 30t39 80.5t24.5 108h55v-572h-55q-4 45 -24.5 112.5t-38.5 88.5q-57 61 -172 61h-148v-450 q0 -123 43 -155t201 -32h28q82 0 120 1t81 12.5t66 33.5q45 47 94 131.5t72 155.5h51l-27 -393h-872q-143 0 -410 -4q-270 0 -450 184q-201 205 -201 504zM324 694q0 -285 105.5 -463t328.5 -178q98 0 143 16.5t92 57.5q97 79 97 575q0 123 -1.5 172.5t-8.5 144.5 t-25.5 149.5t-50.5 86.5q-88 88 -246 88q-213 0 -323.5 -169.5t-110.5 -479.5z" />
<glyph unicode="&#x153;" horiz-adv-x="1656" d="M63 459q0 219 132.5 356t345.5 137q217 0 356 -166q57 74 142 120t182 46q195 0 289 -112.5t94 -284.5v-14h-617v-35q0 -203 78 -321.5t229 -118.5q113 0 168.5 37.5t118.5 142.5l37 -25q-53 -113 -152.5 -179.5t-224.5 -66.5q-221 0 -348 170q-143 -174 -367 -174 q-190 0 -326.5 134.5t-136.5 353.5zM270 475q0 -199 66.5 -329t202.5 -130q127 0 190.5 128t63.5 327q0 186 -59.5 311t-194.5 125q-76 0 -130.5 -39t-83 -105.5t-42 -137t-13.5 -150.5zM989 586l408 4q0 315 -178 315q-94 0 -162 -96t-68 -223z" />
<glyph unicode="&#x178;" horiz-adv-x="1280" d="M-66 1354v45h660v-45q-207 -12 -207 -72q0 -39 318 -602q336 526 335 575q0 84 -221 99v45h533v-45q-63 -6 -119 -41q-57 -33 -115 -105q-53 -66 -111.5 -156.5t-98.5 -160.5t-115 -207q-61 -115 -62 -229v-273q0 -76 64 -102q18 -8 79.5 -20.5t88.5 -14.5v-45h-680v45 q121 6 168 25q63 25 63 102v356q0 47 -53 154q-150 293 -271 498q-55 98 -124 139q-55 31 -132 35zM338 1651q0 49 35 85t82 36q53 0 88 -34t35 -79q0 -51 -36 -88t-87 -37q-47 0 -82 35t-35 82zM782 1651q0 49 35 85t84 36q51 0 86 -34t35 -79q0 -51 -35 -88t-86 -37 q-49 0 -84 35t-35 82z" />
<glyph unicode="&#x2c6;" horiz-adv-x="1024" d="M190 1106q109 160 234 350q20 31 33.5 38t56.5 7t54.5 -6t29.5 -35q23 -33 101 -151.5t135 -202.5l-31 -25l-293 275l-289 -275z" />
<glyph unicode="&#x2dc;" horiz-adv-x="1024" d="M113 1145q33 92 100.5 174t155.5 82q86 0 181 -55.5t138 -55.5q80 0 110.5 26.5t61.5 92.5q6 12 8 18l41 -14q-25 -88 -98.5 -172t-163.5 -84t-184 55.5t-146 55.5q-59 0 -88.5 -29t-76.5 -111z" />
<glyph unicode="&#x2000;" horiz-adv-x="955" />
<glyph unicode="&#x2001;" horiz-adv-x="1911" />
<glyph unicode="&#x2002;" horiz-adv-x="955" />
<glyph unicode="&#x2003;" horiz-adv-x="1911" />
<glyph unicode="&#x2004;" horiz-adv-x="637" />
<glyph unicode="&#x2005;" horiz-adv-x="477" />
<glyph unicode="&#x2006;" horiz-adv-x="318" />
<glyph unicode="&#x2007;" horiz-adv-x="318" />
<glyph unicode="&#x2008;" horiz-adv-x="238" />
<glyph unicode="&#x2009;" horiz-adv-x="382" />
<glyph unicode="&#x200a;" horiz-adv-x="106" />
<glyph unicode="&#x2010;" horiz-adv-x="778" d="M82 434v156h614v-156h-614z" />
<glyph unicode="&#x2011;" horiz-adv-x="778" d="M82 434v156h614v-156h-614z" />
<glyph unicode="&#x2012;" horiz-adv-x="778" d="M82 434v156h614v-156h-614z" />
<glyph unicode="&#x2013;" horiz-adv-x="1110" d="M102 481v125h906v-125h-906z" />
<glyph unicode="&#x2014;" horiz-adv-x="1904" d="M152 461v121h1601v-121h-1601z" />
<glyph unicode="&#x2018;" horiz-adv-x="378" d="M45 1180q0 61 25.5 115.5t75 97.5t82 64.5t81.5 49.5l29 -47q-96 -55 -143.5 -107.5t-55.5 -142.5h51q70 0 102 -34.5t32 -85.5q0 -45 -33 -80t-86 -35q-160 0 -160 205z" />
<glyph unicode="&#x2019;" horiz-adv-x="378" d="M63 1024q96 55 143.5 107.5t55.5 142.5h-51q-70 0 -101.5 34.5t-31.5 86.5q0 45 32.5 79.5t86.5 34.5q159 1 159 -204q0 -61 -25.5 -115.5t-74.5 -97.5t-82 -64.5t-82 -50.5z" />
<glyph unicode="&#x201a;" horiz-adv-x="378" d="M63 -246q96 55 143.5 107.5t55.5 142.5h-51q-70 0 -101.5 35t-31.5 86q0 45 32.5 80t86.5 35q159 0 159 -205q0 -61 -25.5 -115.5t-74.5 -97.5t-82 -64.5t-82 -50.5z" />
<glyph unicode="&#x201c;" horiz-adv-x="724" d="M45 1180q0 61 25.5 115.5t77 96.5t82 63.5t81.5 49.5l25 -45q-94 -55 -142.5 -110.5t-56.5 -145.5h51q127 0 127 -114q0 -45 -31.5 -80t-84.5 -35q-154 0 -154 205zM391 1180q0 61 25.5 115.5t77 96.5t82 63.5t81.5 49.5l25 -45q-94 -55 -142 -110.5t-57 -145.5h52 q127 0 127 -114q0 -45 -32 -80t-85 -35q-154 0 -154 205z" />
<glyph unicode="&#x201d;" horiz-adv-x="724" d="M63 1024q94 55 142.5 110.5t56.5 145.5h-51q-127 0 -127 115q0 45 31.5 79.5t85.5 34.5q153 1 153 -204q0 -61 -25.5 -115.5t-76.5 -96.5t-82 -63.5t-82 -50.5zM410 1024q94 55 142 110.5t56 145.5h-51q-127 0 -127 115q0 45 32 79.5t85 34.5q153 1 153 -204 q0 -61 -25.5 -115.5t-76.5 -96.5t-82 -63.5t-82 -50.5z" />
<glyph unicode="&#x201e;" horiz-adv-x="724" d="M63 -252q94 55 142.5 110.5t56.5 145.5h-51q-127 0 -127 115q0 45 31.5 79.5t85.5 34.5q153 1 153 -204q0 -61 -25.5 -115.5t-76.5 -96.5t-82 -63.5t-82 -50.5zM410 -252q94 55 142 110.5t56 145.5h-51q-127 0 -127 115q0 45 32 79.5t85 34.5q153 1 153 -204 q0 -61 -25.5 -115.5t-76.5 -96.5t-82 -63.5t-82 -50.5z" />
<glyph unicode="&#x2022;" horiz-adv-x="843" d="M143 665.5q0 112.5 82 195.5t197 83t196.5 -83t81.5 -195.5t-81.5 -193.5t-196.5 -81t-197 81t-82 193.5z" />
<glyph unicode="&#x2026;" horiz-adv-x="1683" d="M150 112.5q0 53.5 38.5 92.5t92 39t92.5 -39t39 -92.5t-39 -91t-92.5 -37.5t-92 37.5t-38.5 91zM711 112.5q0 53.5 38.5 92.5t92 39t92.5 -39t39 -92.5t-39 -91t-92.5 -37.5t-92 37.5t-38.5 91zM1272 112.5q0 53.5 39 92.5t92 39t92 -39t39 -92.5t-39 -91t-92 -37.5 t-92 37.5t-39 91z" />
<glyph unicode="&#x202f;" horiz-adv-x="382" />
<glyph unicode="&#x2039;" horiz-adv-x="718" d="M102 459q0 35 8.5 48t32.5 34q217 166 428 344l33 -27l-321 -403l321 -398l-33 -26q-76 61 -170 138t-157.5 127t-96.5 77q-23 16 -28.5 22t-11 21.5t-5.5 42.5z" />
<glyph unicode="&#x203a;" horiz-adv-x="718" d="M115 57l321 398l-321 403l32 27q211 -178 428 -344q27 -20 34 -33.5t7 -48.5q0 -27 -5 -42.5t-11 -21.5t-29 -22q-33 -27 -96 -77t-157.5 -127t-170.5 -138z" />
<glyph unicode="&#x205f;" horiz-adv-x="477" />
<glyph unicode="&#x2122;" horiz-adv-x="1138" d="M88 1282v117h387v-117h-16q-8 25 -27.5 54.5t-38.5 31.5q-14 2 -49 2h-22v-334q0 -20 16 -28q29 -8 47 -11v-20h-207v20q4 0 15.5 2t20.5 3.5t13 3.5q16 8 17 28v336h-23q-35 0 -49 -2q-18 -2 -38.5 -31.5t-29.5 -54.5h-16zM532 977v20q45 8 54 17q20 14 20 82v213 q0 35 -18 49q-27 18 -51 18v23h147l135 -301l105 245q2 2 14 56h156v-23q-14 0 -45 -10q-16 -6 -17 -29v-301q0 -20 17 -28q8 -4 47 -11v-20h-213v20q2 0 26.5 3.5t28.5 5.5q16 10 16 30v297l-155 -350h-15q-18 53 -32 86l-111 256v-225q0 -66 21 -82q10 -10 57 -21v-20 h-187z" />
<glyph unicode="&#x25fc;" horiz-adv-x="921" d="M0 0v922h922v-922h-922z" />
<glyph unicode="&#xfb01;" horiz-adv-x="1183" d="M4 842v80h209v63q0 248 154 414q51 53 131 92t170 39q319 0 319 -217q0 -41 -27.5 -79t-80.5 -38q-41 0 -78 22.5t-37 69.5q0 31 6 52.5t16.5 38t10.5 18.5q-6 86 -142 86q-106 0 -181 -108.5t-75 -327.5v-125h330l248 16l14 -14v-764q0 -74 56 -94q57 -23 90 -25v-41 h-471v41q41 2 84 14q55 18 55 92v598q-6 68 -29 103h-377v-690q0 -72 56 -92q55 -23 102 -25v-41h-489v41q49 2 90 14q55 18 55 92v695h-209z" />
<glyph unicode="&#xfb02;" horiz-adv-x="1185" d="M4 838v84h209v63q0 248 154 414q123 131 299 131q115 0 213 -47l104 45l14 -15v-1353q0 -70 56 -94q47 -23 90 -25v-41h-473v41q45 2 86 14q57 18 57 92v1067q-66 18 -65 74q0 29 12 51.5t26.5 34.5t14.5 15q-12 96 -148 96q-104 0 -179 -109.5t-75 -328.5v-125h252v-84 h-252v-680q0 -72 56 -92q55 -23 102 -25v-41h-489v41q49 2 90 14q55 18 55 92v691h-209z" />
</font>
</defs>
</svg>
